<svg width="15" height="16" viewBox="0 0 15 16" fill="none" xmlns="http://www.w3.org/2000/svg">
<path d="M13.9019 1.2549H11.8627V0.470588C11.8627 0.34578 11.8131 0.226084 11.7249 0.137832C11.6366 0.0495796 11.5169 0 11.3921 0C11.2673 0 11.1476 0.0495796 11.0594 0.137832C10.9711 0.226084 10.9215 0.34578 10.9215 0.470588V1.2549H4.33331V0.470588C4.33331 0.34578 4.28373 0.226084 4.19548 0.137832C4.10723 0.0495796 3.98753 0 3.86273 0C3.73792 0 3.61822 0.0495796 3.52997 0.137832C3.44172 0.226084 3.39214 0.34578 3.39214 0.470588V1.2549H1.35292C1.0617 1.2549 0.782413 1.37059 0.576491 1.57651C0.370569 1.78243 0.254883 2.06172 0.254883 2.35294V14.902C0.254883 15.1932 0.370569 15.4725 0.576491 15.6784C0.782413 15.8843 1.0617 16 1.35292 16H13.9019C14.1932 16 14.4725 15.8843 14.6784 15.6784C14.8843 15.4725 15 15.1932 15 14.902V2.35294C15 2.06172 14.8843 1.78243 14.6784 1.57651C14.4725 1.37059 14.1932 1.2549 13.9019 1.2549ZM1.35292 2.19608H3.39214V2.98039C3.39214 3.1052 3.44172 3.2249 3.52997 3.31315C3.61822 3.4014 3.73792 3.45098 3.86273 3.45098C3.98753 3.45098 4.10723 3.4014 4.19548 3.31315C4.28373 3.2249 4.33331 3.1052 4.33331 2.98039V2.19608H10.9215V2.98039C10.9215 3.1052 10.9711 3.2249 11.0594 3.31315C11.1476 3.4014 11.2673 3.45098 11.3921 3.45098C11.5169 3.45098 11.6366 3.4014 11.7249 3.31315C11.8131 3.2249 11.8627 3.1052 11.8627 2.98039V2.19608H13.9019C13.9435 2.19608 13.9834 2.2126 14.0129 2.24202C14.0423 2.27144 14.0588 2.31134 14.0588 2.35294V5.01961H1.19606V2.35294C1.19606 2.31134 1.21259 2.27144 1.242 2.24202C1.27142 2.2126 1.31132 2.19608 1.35292 2.19608ZM13.9019 15.0588H1.35292C1.31132 15.0588 1.27142 15.0423 1.242 15.0129C1.21259 14.9835 1.19606 14.9436 1.19606 14.902V5.96078H14.0588V14.902C14.0588 14.9436 14.0423 14.9835 14.0129 15.0129C13.9834 15.0423 13.9435 15.0588 13.9019 15.0588Z" fill="#A7A7A7"/>
</svg>
