<svg width="210" height="145" viewBox="0 0 210 145" fill="none" xmlns="http://www.w3.org/2000/svg">
<g opacity="0.6">
<path d="M184.459 64.8117H140.866V36.9332H184.459L181.639 49.0938L184.459 64.8117Z" fill="#E4E6ED"/>
<path d="M181.639 49.0938H150.672L182.481 45.4575L181.639 49.0938Z" fill="#D2D6E1"/>
<path d="M143.949 53.5938L172.884 54.7546L143.949 55.4269V53.5938Z" fill="#D2D6E1"/>
</g>
<g opacity="0.6">
<path d="M55.6762 102.583H25.9548L28.7932 51.8162L25.9548 35.1343H55.6762V102.583Z" fill="#E4E6ED"/>
<path d="M28.7934 51.8162H50.3192V50.0473L28.1028 47.7567L28.7934 51.8162Z" fill="#D2D6E1"/>
<path d="M26.3652 37.5478L48.3251 36.3196H26.1567L26.3652 37.5478Z" fill="#D2D6E1"/>
<path d="M50.3189 62.3533L30.741 63.6658H50.3189V62.3533Z" fill="#D2D6E1"/>
</g>
<g opacity="0.6">
<path d="M195.524 144.2H138.587V61.5078H197.327L199.726 78.8792L196.297 104.525L197.584 127.018L195.524 144.2Z" fill="#F1F2F5"/>
<path d="M199.725 78.8792H166.247L199.153 74.733L199.725 78.8792Z" fill="#E4E6ED"/>
<path d="M143.279 67.6025L179.36 69.146L143.279 71.6279V67.6025Z" fill="#E4E6ED"/>
<path d="M196.297 104.525L155.734 106.635L196.297 107.259V104.525Z" fill="#E4E6ED"/>
<path d="M143.279 133.955C143.279 134.044 191.299 133.955 191.299 133.955L143.279 137.573V133.955Z" fill="#E4E6ED"/>
<path d="M199.44 76.8227C197.623 77.0033 195.805 77.1498 193.988 77.293C193.078 77.3642 192.168 77.4298 191.257 77.4897C190.347 77.5495 189.436 77.6058 188.526 77.6585L185.791 77.79C184.879 77.8317 183.967 77.8755 183.057 77.929C181.239 78.0359 179.415 78.1748 177.596 78.3234C175.776 78.472 173.961 78.6173 172.137 78.7456C170.313 78.8739 168.497 79.0085 166.675 79.1229C163.033 79.3431 159.387 79.5419 155.739 79.6723V79.6381C159.373 79.2939 163.008 79.0171 166.654 78.7627C168.471 78.6398 170.297 78.535 172.119 78.4281C173.941 78.3213 175.763 78.224 177.586 78.1385C179.409 78.053 181.232 77.9482 183.052 77.8178C183.962 77.7526 184.87 77.6767 185.781 77.604L188.51 77.3796C189.42 77.3083 190.33 77.246 191.24 77.1925C192.151 77.1391 193.061 77.086 193.973 77.0332C195.79 76.9381 197.618 76.8473 199.443 76.7906L199.44 76.8227Z" fill="#9EA9BD"/>
<path d="M197.232 97.5343C195.2 97.5461 193.169 97.5418 191.144 97.5461L185.057 97.5322C183.026 97.5322 180.994 97.5108 178.971 97.5001L172.883 97.4616L160.711 97.3334L154.624 97.2479C152.592 97.2104 150.566 97.1816 148.537 97.141C150.569 97.1281 152.6 97.1324 154.625 97.1281L160.712 97.142L172.886 97.2126L178.973 97.2735C181.004 97.296 183.035 97.3099 185.059 97.3419L191.145 97.4264C193.179 97.4606 195.202 97.4894 197.232 97.5343Z" fill="#9EA9BD"/>
<path d="M152.327 118.432C153.405 118.403 154.482 118.39 155.56 118.37L158.793 118.335C160.948 118.311 163.103 118.308 165.259 118.305C167.414 118.302 169.569 118.311 171.724 118.334L174.957 118.37C176.035 118.39 177.113 118.403 178.19 118.432C177.113 118.461 176.035 118.473 174.957 118.494L171.724 118.529C169.569 118.553 167.414 118.556 165.259 118.558C163.103 118.56 160.948 118.552 158.793 118.529L155.56 118.494C154.478 118.473 153.409 118.461 152.327 118.432Z" fill="#9EA9BD"/>
<path d="M197.584 127.018L194.168 127.06L190.75 127.083L183.915 127.103L177.079 127.083L173.663 127.06L170.245 127.018L173.663 126.978L177.079 126.954L183.915 126.934L190.75 126.954L194.168 126.978L197.584 127.018Z" fill="#9EA9BD"/>
<path d="M158.149 69.6152L161.702 69.4624L165.254 69.3277L172.36 69.0851L179.468 68.882L183.022 68.7943L186.577 68.7249L183.024 68.8777L179.472 69.0124L172.366 69.2539L165.259 69.457L161.704 69.5447L158.149 69.6152Z" fill="#9EA9BD"/>
<path d="M152.327 88.0095L155.561 87.9946L158.794 87.9881L165.26 87.9774L171.726 87.9881L174.958 87.9946L178.191 88.0095L174.958 88.0255L171.726 88.0309L165.26 88.0416L158.794 88.0309L155.561 88.0255L152.327 88.0095Z" fill="#9EA9BD"/>
<path d="M192.085 106.299L186.793 106.44L181.5 106.567L170.915 106.821L160.329 107.047L155.036 107.16L149.742 107.259L155.035 107.118L160.328 106.991L170.913 106.736L181.499 106.511L186.792 106.399L192.085 106.299Z" fill="#9EA9BD"/>
<path d="M145.681 135.737C147.65 135.565 149.621 135.447 151.594 135.34L153.072 135.265L154.552 135.199C155.539 135.154 156.526 135.121 157.512 135.099L160.475 135.056L161.955 135.037L163.436 135.002C164.423 134.972 165.409 134.933 166.395 134.885C167.382 134.84 168.368 134.778 169.353 134.719C170.339 134.661 171.324 134.595 172.31 134.542C173.297 134.489 174.282 134.435 175.268 134.393L178.227 134.254C179.213 134.207 180.199 134.173 181.186 134.136C185.133 134.007 189.081 133.922 193.033 133.928V133.979C189.094 134.29 185.15 134.505 181.205 134.677C180.218 134.714 179.231 134.755 178.245 134.784L175.284 134.87C174.298 134.9 173.311 134.929 172.323 134.948C171.335 134.967 170.349 134.98 169.362 134.997C168.375 135.014 167.386 135.026 166.399 135.057C165.413 135.088 164.427 135.121 163.44 135.164L161.962 135.243L160.483 135.336L157.526 135.519C156.54 135.572 155.554 135.615 154.567 135.646L153.087 135.693L151.607 135.731C149.632 135.774 147.657 135.808 145.681 135.786V135.737Z" fill="#9EA9BD"/>
</g>
<g opacity="0.6">
<path d="M65.6635 144.2H13.2905L11.0081 130.351L15.6339 107.56L11.0081 91.1927L13.2905 74.8164H65.6635L63.6857 88.6744L68.0379 106.307L63.2281 131.037L65.6635 144.2Z" fill="#F1F2F5"/>
<path d="M11.0081 91.1926L49.4862 93.4501L11.827 94.0893L11.0081 91.1926Z" fill="#E4E6ED"/>
<path d="M63.2282 131.037L44.9053 133.866L63.8856 134.593L63.2282 131.037Z" fill="#E4E6ED"/>
<path d="M13.8293 116.452L31.0713 117.799L13.3279 118.923L13.8293 116.452Z" fill="#E4E6ED"/>
<path d="M68.0377 106.307L22.199 107.56L67.5577 108.776L68.0377 106.307Z" fill="#E4E6ED"/>
<path d="M65.1128 78.674H55.676L64.6466 81.9426L65.1128 78.674Z" fill="#E4E6ED"/>
<path d="M11.4177 92.641L17.179 92.5747L22.9391 92.5341C24.8635 92.517 26.7803 92.5202 28.7004 92.5127L34.4616 92.4988L40.2229 92.5116C42.1472 92.518 44.063 92.5116 45.9831 92.5309L51.7443 92.5704C53.6687 92.595 55.5855 92.6078 57.5056 92.641C55.5812 92.6752 53.6644 92.6901 51.7443 92.7147L45.9831 92.7575C44.0587 92.7767 42.143 92.7724 40.2229 92.7799L34.4616 92.7938L28.7004 92.781C26.7761 92.7746 24.8603 92.781 22.9391 92.7607L17.179 92.719L14.2978 92.6848C13.3378 92.6741 12.3778 92.6613 11.4177 92.641Z" fill="#9EA9BD"/>
<path d="M63.228 131.034C61.9504 131.141 60.6729 131.23 59.3953 131.324L57.4785 131.464L55.5606 131.593C53.0044 131.764 50.4483 131.944 47.891 132.099L44.0552 132.333L40.2183 132.56C37.6596 132.703 35.1013 132.843 32.5434 132.981H32.5273H32.5124C31.3428 132.83 30.1736 132.673 29.0047 132.51L25.4982 132.033C24.3286 131.876 23.1612 131.713 21.9927 131.542C20.8242 131.371 19.6567 131.212 18.4915 131.034C19.6674 131.156 20.8434 131.286 22.0109 131.417C23.1783 131.547 24.3564 131.674 25.527 131.814L29.0432 132.226C30.2192 132.363 31.3866 132.498 32.5573 132.644H32.5263C35.0835 132.479 37.6407 132.328 40.198 132.177L44.0349 131.963L47.8729 131.749C50.4312 131.608 52.9905 131.49 55.5499 131.365L57.4689 131.272L59.3932 131.191C60.6675 131.141 61.9472 131.082 63.228 131.034Z" fill="#9EA9BD"/>
<path d="M13.5781 117.688L18.6808 117.641L23.7824 117.613L33.9868 117.591L44.1911 117.613L49.2938 117.64L54.3954 117.688L49.2938 117.735L44.1911 117.762L33.9868 117.784L23.7824 117.762L18.6808 117.735L13.5781 117.688Z" fill="#9EA9BD"/>
<path d="M66.2791 99.1814C65.5799 99.2028 64.8797 99.2124 64.1805 99.2285L62.0809 99.2552C60.6814 99.2712 59.282 99.2691 57.8826 99.2776C56.4832 99.2862 55.0838 99.2712 53.6843 99.2552L51.5847 99.2285C50.8855 99.2124 50.1853 99.2028 49.4861 99.1814C50.1853 99.159 50.8855 99.1494 51.5847 99.1333L53.6843 99.1066C55.0838 99.0917 56.4832 99.0917 57.8826 99.0842C59.282 99.0767 60.6814 99.0906 62.0809 99.1066L64.1805 99.1344C64.8797 99.1504 65.5799 99.1601 66.2791 99.1814Z" fill="#9EA9BD"/>
<path d="M24.7725 81.9426C25.6202 81.9212 26.468 81.9116 27.3158 81.8956L29.8591 81.8688C31.5547 81.8528 33.2502 81.8539 34.9458 81.8464C36.6413 81.8389 38.3369 81.8528 40.0324 81.8678L42.5758 81.8956C43.4235 81.9116 44.2713 81.9212 45.1191 81.9426C44.2713 81.965 43.4235 81.9736 42.5758 81.9896L40.0324 82.0174C38.3369 82.0324 36.6413 82.0313 34.9458 82.0388C33.2502 82.0463 31.5547 82.0324 29.8591 82.0163L27.3158 81.9896C26.468 81.9725 25.6202 81.964 24.7725 81.9426Z" fill="#9EA9BD"/>
<path d="M38.385 86.3442C39.3023 86.3228 40.2195 86.3132 41.1357 86.2972L43.8875 86.2705C45.7221 86.2544 47.5555 86.2566 49.3901 86.248C51.2235 86.2555 53.0581 86.2544 54.8926 86.2705L57.6433 86.2972C58.5606 86.3132 59.4779 86.3228 60.3951 86.3442C59.4779 86.3667 58.5606 86.3763 57.6433 86.3923L54.8926 86.419C53.0581 86.434 51.2235 86.434 49.3901 86.4415C47.5566 86.449 45.7221 86.4351 43.8875 86.419L41.1357 86.3923C40.2195 86.3763 39.3023 86.3667 38.385 86.3442Z" fill="#9EA9BD"/>
<path d="M13.2661 99.1814C13.9129 99.1589 14.5608 99.1493 15.2076 99.1344L17.1479 99.1066C18.4426 99.0895 19.7362 99.0873 21.0297 99.0841C22.3233 99.0809 23.618 99.0841 24.9116 99.1066L26.853 99.1333C27.4944 99.1493 28.1466 99.1589 28.7934 99.1814C28.1466 99.2028 27.4998 99.2124 26.853 99.2284L24.9116 99.2551C23.618 99.2733 22.3244 99.2755 21.0297 99.2776C19.7351 99.2797 18.4426 99.2776 17.1479 99.2551L15.2076 99.2284C14.5608 99.2135 13.9129 99.2038 13.2661 99.1814Z" fill="#9EA9BD"/>
<path d="M12.8328 141.423L65.6633 144.2H13.2903L12.8328 141.423Z" fill="#E4E6ED"/>
</g>
<path d="M138.724 12.1887H55.5426C52.6577 12.1887 50.3191 14.5269 50.3191 17.4113V138.979C50.3191 141.863 52.6577 144.201 55.5426 144.201H138.724C141.609 144.201 143.948 141.863 143.948 138.979V17.4113C143.948 14.5269 141.609 12.1887 138.724 12.1887Z" fill="#576B81"/>
<path d="M135.612 18.0101H59.0055C57.2832 18.0101 55.887 19.4061 55.887 21.128V135.782C55.887 137.504 57.2832 138.9 59.0055 138.9H135.612C137.334 138.9 138.731 137.504 138.731 135.782V21.128C138.731 19.4061 137.334 18.0101 135.612 18.0101Z" fill="#FEFEFE"/>
<path d="M70.936 35V30.216H69.136V29.424H73.608V30.216H71.8V35H70.936ZM78.5822 35H77.5822L76.2222 32.632H75.8702H75.3662V35H74.5182V29.424H76.2622C77.5502 29.424 78.1422 30.008 78.1422 31.008C78.1422 31.8 77.7662 32.32 77.0702 32.528L78.5822 35ZM75.3662 31.848H76.1742C76.9022 31.848 77.2782 31.616 77.2782 31.024C77.2782 30.432 76.9022 30.216 76.1742 30.216H75.3662V31.848ZM82.9266 35L82.4706 33.736H80.2386L79.7746 35H78.8466L81.0226 29.424H81.6866L83.8626 35H82.9266ZM80.5186 32.96H82.1906L81.3586 30.672L80.5186 32.96ZM88.1284 29.424H88.9844V35H88.0884L85.6164 30.896V35H84.7604V29.424H85.6484L88.1284 33.504V29.424ZM92.0778 35.096C90.9898 35.096 90.1578 34.448 89.9978 33.456L90.8538 33.248C90.9338 33.928 91.4058 34.336 92.0938 34.336C92.7338 34.336 93.1098 34.008 93.1098 33.504C93.1098 33.048 92.8058 32.784 91.9258 32.44C90.7738 32 90.3658 31.584 90.3658 30.8C90.3658 29.912 91.0378 29.32 92.0458 29.32C92.7818 29.32 93.3658 29.648 93.7098 30.296L92.9978 30.736C92.7898 30.312 92.4298 30.08 92.0218 30.08C91.5578 30.08 91.2218 30.392 91.2218 30.776C91.2218 31.192 91.5258 31.424 92.3818 31.752C93.5898 32.216 93.9658 32.648 93.9658 33.432C93.9658 34.44 93.2218 35.096 92.0778 35.096ZM98.3797 35L97.9237 33.736H95.6917L95.2277 35H94.2997L96.4757 29.424H97.1397L99.3157 35H98.3797ZM95.9717 32.96H97.6437L96.8117 30.672L95.9717 32.96ZM102.228 35.104C100.604 35.104 99.5795 33.992 99.5795 32.208C99.5795 30.416 100.612 29.312 102.244 29.312C103.404 29.312 104.252 29.864 104.66 30.912L103.868 31.216C103.604 30.488 103.044 30.128 102.244 30.128C101.1 30.128 100.436 30.872 100.436 32.2C100.436 33.536 101.1 34.288 102.228 34.288C103.036 34.288 103.604 33.912 103.868 33.176L104.676 33.48C104.268 34.536 103.396 35.104 102.228 35.104ZM106.842 35V30.216H105.042V29.424H109.514V30.216H107.706V35H106.842ZM110.424 35V29.424H111.28V35H110.424ZM115.063 35.104C113.495 35.104 112.431 33.952 112.431 32.216C112.431 30.472 113.495 29.32 115.063 29.32C116.631 29.32 117.687 30.472 117.687 32.216C117.687 33.952 116.623 35.104 115.063 35.104ZM115.063 34.288C116.143 34.288 116.831 33.488 116.831 32.216C116.831 30.936 116.143 30.136 115.063 30.136C113.983 30.136 113.287 30.928 113.287 32.216C113.287 33.496 113.983 34.288 115.063 34.288ZM122.214 29.424H123.07V35H122.174L119.702 30.896V35H118.846V29.424H119.734L122.214 33.504V29.424ZM126.164 35.096C125.076 35.096 124.244 34.448 124.084 33.456L124.94 33.248C125.02 33.928 125.492 34.336 126.18 34.336C126.82 34.336 127.196 34.008 127.196 33.504C127.196 33.048 126.892 32.784 126.012 32.44C124.86 32 124.452 31.584 124.452 30.8C124.452 29.912 125.124 29.32 126.132 29.32C126.868 29.32 127.452 29.648 127.796 30.296L127.084 30.736C126.876 30.312 126.516 30.08 126.108 30.08C125.644 30.08 125.308 30.392 125.308 30.776C125.308 31.192 125.612 31.424 126.468 31.752C127.676 32.216 128.052 32.648 128.052 33.432C128.052 34.44 127.308 35.096 126.164 35.096Z" fill="#2A2E39"/>
<path d="M111.929 9.52934H104.905C105.142 8.3763 105.12 7.18495 104.839 6.04171C104.559 4.89848 104.027 3.83201 103.283 2.91968C102.539 2.00734 101.601 1.272 100.538 0.767002C99.4742 0.262002 98.3116 0 97.1342 0C95.9568 0 94.7942 0.262002 93.7307 0.767002C92.6672 1.272 91.7294 2.00734 90.9854 2.91968C90.2414 3.83201 89.7098 4.89848 89.4292 6.04171C89.1486 7.18495 89.126 8.3763 89.3631 9.52934H82.335C81.9629 9.52934 81.5944 9.60264 81.2506 9.74506C80.9068 9.88747 80.5944 10.0962 80.3314 10.3593C80.0683 10.6225 79.8596 10.9349 79.7173 11.2786C79.575 11.6224 79.5018 11.9909 79.502 12.3629V19.347C79.5018 19.719 79.575 20.0874 79.7173 20.4311C79.8596 20.7748 80.0683 21.0871 80.3314 21.3502C80.5945 21.6132 80.9069 21.8219 81.2507 21.9642C81.5945 22.1065 81.9629 22.1796 82.335 22.1795H111.929C112.301 22.1796 112.67 22.1065 113.014 21.9642C113.357 21.8219 113.67 21.6133 113.933 21.3503C114.196 21.0872 114.405 20.7749 114.548 20.4312C114.69 20.0875 114.763 19.719 114.763 19.347V12.3629C114.763 11.6114 114.465 10.8907 113.933 10.3593C113.402 9.82788 112.681 9.52934 111.929 9.52934ZM97.1299 9.31557C96.5966 9.31557 96.0753 9.15744 95.6319 8.86119C95.1885 8.56493 94.8429 8.14385 94.6389 7.65122C94.4348 7.15858 94.3815 6.61651 94.4856 6.09356C94.5897 5.57061 94.8466 5.09029 95.2238 4.71333C95.601 4.33637 96.0815 4.07971 96.6046 3.97582C97.1277 3.87192 97.6698 3.92546 98.1625 4.12966C98.6551 4.33385 99.0761 4.67953 99.3723 5.12298C99.6684 5.56643 99.8264 6.08772 99.8261 6.62093C99.8264 7.33532 99.5431 8.02061 99.0383 8.52626C98.5336 9.03191 97.8487 9.31657 97.1342 9.31771L97.1299 9.31557Z" fill="#30B7DB"/>
<path d="M78.2765 56.9041H62.9888V43.1915H78.2765V56.9041ZM63.4699 56.4263H77.7955V43.6746H63.4699V56.4263Z" fill="#9EA9BD"/>
<path d="M86.6003 43.4331C88.5247 43.3967 90.449 43.3818 92.3733 43.355L98.1464 43.3112C100.071 43.292 101.995 43.2952 103.919 43.2877L109.692 43.2738L115.465 43.2877C117.39 43.2952 119.314 43.2877 121.238 43.3101L127.011 43.355C128.936 43.3807 130.86 43.3967 132.784 43.4331C130.86 43.4683 128.936 43.4844 127.011 43.5111L121.238 43.5549C119.314 43.5742 117.39 43.5699 115.465 43.5774L109.692 43.5913L103.919 43.5774C101.995 43.5699 100.071 43.5774 98.1464 43.5549L92.3733 43.51C90.4501 43.4844 88.5257 43.4683 86.6003 43.4331Z" fill="#9EA9BD"/>
<path d="M86.6003 49.0939C88.5247 49.0586 90.449 49.0426 92.3733 49.0169L98.1464 48.972C100.071 48.9528 101.995 48.957 103.919 48.9496L109.692 48.9346L115.465 48.9496C117.39 48.957 119.314 48.9496 121.238 48.972L127.011 49.0158C128.936 49.0426 130.86 49.0575 132.784 49.0939C130.86 49.1302 128.936 49.1452 127.011 49.1719L121.238 49.2157C119.314 49.236 117.39 49.2307 115.465 49.2382L109.692 49.2531L103.919 49.2382C101.995 49.2317 100.071 49.2382 98.1464 49.2157L92.3733 49.1719C90.4501 49.1452 88.5257 49.1302 86.6003 49.0939Z" fill="#9EA9BD"/>
<path d="M86.6003 54.7546C87.9121 54.7258 89.2239 54.713 90.5345 54.6916L94.4698 54.6542C95.7816 54.6392 97.0933 54.6413 98.404 54.636L102.339 54.6242L106.273 54.636C107.585 54.6413 108.897 54.636 110.209 54.6542L114.143 54.6905C115.455 54.713 116.766 54.7258 118.078 54.7546C116.766 54.7846 115.455 54.7974 114.143 54.8198L110.209 54.8562C108.897 54.8722 107.585 54.8679 106.273 54.8744L102.339 54.8861L98.404 54.8744C97.0933 54.8679 95.7816 54.8744 94.4698 54.8551L90.5345 54.823C89.2239 54.7974 87.9121 54.7846 86.6003 54.7546Z" fill="#9EA9BD"/>
<path d="M78.2765 74.7341H62.9888V61.0225H78.2765V74.7341ZM63.4699 74.2509H77.7955V61.5035H63.4699V74.2509Z" fill="#9EA9BD"/>
<path d="M86.6003 61.2619C88.5247 61.2266 90.449 61.2106 92.3733 61.185L98.1464 61.1401C100.071 61.1219 101.995 61.1251 103.919 61.1176L109.692 61.1037L115.465 61.1176C117.39 61.1251 119.314 61.1176 121.238 61.1401L127.011 61.1839C128.936 61.2106 130.86 61.2266 132.784 61.2619C130.86 61.2983 128.936 61.3143 127.011 61.3399L121.238 61.3848C119.314 61.4041 117.39 61.3998 115.465 61.4073L109.692 61.4212L103.919 61.4073C101.995 61.3998 100.071 61.4073 98.1464 61.3838L92.3733 61.3399C90.4501 61.3132 88.5257 61.2983 86.6003 61.2619Z" fill="#9EA9BD"/>
<path d="M86.6003 66.9238C88.5247 66.8875 90.449 66.8725 92.3733 66.8458L98.1464 66.8019C100.071 66.7827 101.995 66.7859 103.919 66.7795L109.692 66.7645L115.465 66.7784C117.39 66.7859 119.314 66.7784 121.238 66.8009L127.011 66.8458C128.936 66.8725 130.86 66.8875 132.784 66.9238C130.86 66.9601 128.936 66.9751 127.011 67.0018L121.238 67.0456C119.314 67.0649 117.39 67.0606 115.465 67.0681L109.692 67.082L103.919 67.0681C101.995 67.0606 100.071 67.0681 98.1464 67.0456L92.3733 67.0008C90.4501 66.9751 88.5257 66.9591 86.6003 66.9238Z" fill="#9EA9BD"/>
<path d="M86.6003 72.5846C87.9121 72.5557 89.2239 72.5429 90.5345 72.5204L94.4698 72.4841C95.7816 72.4681 97.0933 72.4713 98.404 72.4659L102.339 72.4531L106.273 72.4649C107.585 72.4713 108.897 72.4648 110.209 72.4841L114.143 72.5204C115.455 72.5418 116.766 72.5546 118.078 72.5846C116.766 72.6145 115.455 72.6273 114.143 72.6487L110.209 72.6861C108.897 72.7021 107.585 72.6979 106.273 72.7043L102.339 72.716L98.404 72.7043C97.0933 72.6979 95.7816 72.7043 94.4698 72.685L90.5345 72.6487C89.2239 72.6273 87.9121 72.6145 86.6003 72.5846Z" fill="#9EA9BD"/>
<path d="M78.2765 92.564H62.9888V78.8503H78.2765V92.564ZM63.4699 92.0798H77.7955V79.3334H63.4699V92.0798Z" fill="#9EA9BD"/>
<path d="M86.6003 79.0919C88.5247 79.0566 90.449 79.0406 92.3733 79.015L98.1464 78.9701C100.071 78.9508 101.995 78.9551 103.919 78.9476L109.692 78.9326L115.465 78.9476C117.39 78.9551 119.314 78.9476 121.238 78.9701L127.011 79.0139C128.936 79.0406 130.86 79.0556 132.784 79.0919C130.86 79.1283 128.936 79.1432 127.011 79.1699L121.238 79.2148C119.314 79.2341 117.39 79.2287 115.465 79.2373L109.692 79.2512L103.919 79.2362C101.995 79.2298 100.071 79.2362 98.1464 79.2138L92.3733 79.1699C90.4501 79.1432 88.5257 79.1283 86.6003 79.0919Z" fill="#9EA9BD"/>
<path d="M86.6003 84.7516C88.5247 84.7163 90.449 84.7013 92.3733 84.6746L98.1464 84.6308C100.071 84.6116 101.995 84.6148 103.919 84.6073L109.692 84.5934L115.465 84.6073C117.39 84.6148 119.314 84.6073 121.238 84.6297L127.011 84.6746C128.936 84.7003 130.86 84.7163 132.784 84.7516C130.86 84.7879 128.936 84.8039 127.011 84.8296L121.238 84.8745C119.314 84.8937 117.39 84.8895 115.465 84.8969L109.692 84.9108L103.919 84.8969C101.995 84.8895 100.071 84.8969 98.1464 84.8734L92.3733 84.8296C90.4501 84.8039 88.5257 84.789 86.6003 84.7516Z" fill="#9EA9BD"/>
<path d="M86.6003 90.4167C87.9121 90.3867 89.2239 90.3739 90.5345 90.3525L94.4698 90.3162C95.7816 90.3001 97.0933 90.3034 98.404 90.2969L102.339 90.2852L106.273 90.2969C107.585 90.3034 108.897 90.2969 110.209 90.3151L114.143 90.3525C115.455 90.3739 116.766 90.3867 118.078 90.4167C116.766 90.4466 115.455 90.4594 114.143 90.4808L110.209 90.5171C108.897 90.5332 107.585 90.53 106.273 90.5364L102.339 90.5481L98.404 90.5353C97.0933 90.53 95.7816 90.5353 94.4698 90.5171L90.5345 90.4808C89.2239 90.4573 87.9121 90.4444 86.6003 90.4167Z" fill="#9EA9BD"/>
<path d="M78.2765 110.393H62.9888V96.6803H78.2765V110.393ZM63.4699 109.91H77.7955V97.1634H63.4699V109.91Z" fill="#9EA9BD"/>
<path d="M86.6003 96.9218C88.5247 96.8855 90.449 96.8705 92.3733 96.8438L98.1464 96.8C100.071 96.7807 101.995 96.784 103.919 96.7775L109.692 96.7626L115.465 96.7765C117.39 96.784 119.314 96.7765 121.238 96.7989L127.011 96.8438C128.936 96.8705 130.86 96.8855 132.784 96.9218C130.86 96.9582 128.936 96.9731 127.011 96.9999L121.238 97.0437C119.314 97.0629 117.39 97.0587 115.465 97.0661L109.692 97.08L103.919 97.0661C101.995 97.0587 100.071 97.0661 98.1464 97.0437L92.3733 96.9988C90.4501 96.9731 88.5257 96.9571 86.6003 96.9218Z" fill="#9EA9BD"/>
<path d="M86.6003 102.583C88.5247 102.547 90.449 102.531 92.3733 102.506L98.1464 102.461C100.071 102.442 101.995 102.446 103.919 102.438L109.692 102.424L115.465 102.438C117.39 102.446 119.314 102.438 121.238 102.461L127.011 102.505C128.936 102.531 130.86 102.546 132.784 102.583C130.86 102.619 128.936 102.634 127.011 102.661L121.238 102.706C119.314 102.725 117.39 102.721 115.465 102.728L109.692 102.742L103.919 102.727C101.995 102.721 100.071 102.727 98.1464 102.704L92.3733 102.661C90.4501 102.634 88.5257 102.619 86.6003 102.583Z" fill="#9EA9BD"/>
<path d="M86.6003 108.244C87.9121 108.215 89.2239 108.202 90.5345 108.18L94.4698 108.144C95.7816 108.128 97.0933 108.131 98.404 108.125L102.339 108.113L106.273 108.125C107.585 108.131 108.897 108.125 110.209 108.143L114.143 108.179C115.455 108.202 116.766 108.215 118.078 108.244C116.766 108.273 115.455 108.286 114.143 108.309L110.209 108.345C108.897 108.361 107.585 108.358 106.273 108.363L102.339 108.375L98.404 108.363C97.0933 108.363 95.7816 108.363 94.4698 108.345L90.5345 108.308C89.2239 108.286 87.9121 108.273 86.6003 108.244Z" fill="#9EA9BD"/>
<path d="M78.2765 128.223H62.9888V114.509H78.2765V128.223ZM63.4699 127.74H77.7955V114.993H63.4699V127.74Z" fill="#9EA9BD"/>
<path d="M86.6003 114.752C88.5247 114.716 90.449 114.701 92.3733 114.674L98.1464 114.63C100.071 114.611 101.995 114.614 103.919 114.606L109.692 114.593L115.465 114.606C117.39 114.614 119.314 114.606 121.238 114.629L127.011 114.674C128.936 114.699 130.86 114.716 132.784 114.752C130.86 114.787 128.936 114.803 127.011 114.83L121.238 114.874C119.314 114.893 117.39 114.889 115.465 114.896L109.692 114.91L103.919 114.896C101.995 114.889 100.071 114.896 98.1464 114.874L92.3733 114.829C90.4501 114.803 88.5257 114.787 86.6003 114.752Z" fill="#9EA9BD"/>
<path d="M86.6003 120.413C88.5247 120.376 90.449 120.361 92.3733 120.335L98.1464 120.291C100.071 120.271 101.995 120.275 103.919 120.268L109.692 120.253L115.465 120.268C117.39 120.276 119.314 120.268 121.238 120.291L127.011 120.335C128.936 120.361 130.86 120.376 132.784 120.413C130.86 120.449 128.936 120.464 127.011 120.491L121.238 120.534C119.314 120.554 117.39 120.549 115.465 120.557L109.692 120.572L103.919 120.557C101.995 120.549 100.071 120.557 98.1464 120.534L92.3733 120.49C90.4501 120.464 88.5257 120.452 86.6003 120.413Z" fill="#9EA9BD"/>
<path d="M86.6003 126.073C87.9121 126.044 89.2239 126.032 90.5345 126.01L94.4698 125.973C95.7816 125.958 97.0933 125.96 98.404 125.955L102.339 125.943L106.273 125.955C107.585 125.955 108.897 125.955 110.209 125.973L114.143 126.009C115.455 126.032 116.766 126.044 118.078 126.073C116.766 126.103 115.455 126.116 114.143 126.138L110.209 126.175C108.897 126.191 107.585 126.187 106.273 126.193L102.339 126.205L98.404 126.193C97.0933 126.187 95.7816 126.193 94.4698 126.174L90.5345 126.137C89.2239 126.117 87.9121 126.103 86.6003 126.073Z" fill="#9EA9BD"/>
<path d="M152.225 126.521L163.043 125.176L153.281 46.7039L142.463 48.0492L152.225 126.521Z" fill="#E8DCDD"/>
<path d="M142.462 48.0497L153.28 46.7044L152.523 40.6202L141.705 41.9655L142.462 48.0497Z" fill="white"/>
<path d="M146.384 35.4304C147.818 35.2523 149.265 35.6511 150.405 36.5391C151.546 37.427 152.287 38.7314 152.466 40.1655L152.523 40.6219L141.705 41.9665L141.648 41.5112C141.47 40.077 141.869 38.6308 142.757 37.4905C143.645 36.3502 144.95 35.6092 146.384 35.4304Z" fill="#E8DCDD"/>
<path d="M146.68 47.5258C146.95 49.1035 147.19 50.6833 147.437 52.2631L147.804 54.6328L148.152 57.0046L148.327 58.1911L148.493 59.3775L148.828 61.7515C148.94 62.5432 149.047 63.3348 149.149 64.1265L149.47 66.5026L149.51 66.7998L149.24 66.9559C148.751 67.2379 148.374 67.6784 148.171 68.2043C148.07 68.4637 148.014 68.7385 148.006 69.0166C148.004 69.1558 148.014 69.2949 148.035 69.4324L148.072 69.6377L148.129 69.8375C148.305 70.3675 148.66 70.8199 149.133 71.118C149.605 71.416 150.166 71.5412 150.72 71.4723C151.275 71.4034 151.788 71.1446 152.173 70.74C152.558 70.3354 152.792 69.8099 152.833 69.2529L152.84 69.0391L152.826 68.8307C152.812 68.6925 152.787 68.5556 152.752 68.4213C152.676 68.1532 152.555 67.9002 152.393 67.6731C152.069 67.2118 151.595 66.8763 151.052 66.7228L150.754 66.6373L150.719 66.3402L150.446 63.9587C150.354 63.1656 150.265 62.3714 150.18 61.5762C150.01 59.9878 149.829 58.3995 149.672 56.809L149.428 54.4243L149.203 52.0365C149.055 50.4449 148.9 48.8533 148.776 47.2586L148.83 47.2522L151.216 66.2782L151.182 66.2386C151.675 66.3703 152.124 66.6272 152.488 66.9845C152.851 67.3417 153.116 67.787 153.256 68.277C153.301 68.4398 153.333 68.606 153.35 68.774C153.357 68.8585 153.364 68.9429 153.368 69.0273L153.361 69.2807C153.312 69.959 153.029 70.5994 152.561 71.0929C152.093 71.5863 151.469 71.9025 150.794 71.9874C150.119 72.0723 149.436 71.9208 148.86 71.5587C148.284 71.1965 147.852 70.6461 147.636 70.0011L147.568 69.7574C147.551 69.674 147.538 69.5906 147.523 69.5073C147.437 68.9171 147.533 68.3149 147.797 67.7803C148.061 67.2458 148.482 66.8043 149.003 66.5144L148.98 66.5604L146.628 47.5343L146.68 47.5258Z" fill="#576B81"/>
<path d="M163.053 125.26L160.084 144.467L152.235 126.606" fill="#4A4E60"/>
<path d="M159.486 144.818C161.011 144.818 162.248 143.504 162.248 141.882C162.248 140.26 161.011 138.946 159.486 138.946C157.96 138.946 156.723 140.26 156.723 141.882C156.723 143.504 157.96 144.818 159.486 144.818Z" fill="#2A2E39"/>
<path d="M152.019 124.528L162.482 123.226C162.757 123.192 163.035 123.269 163.253 123.439C163.472 123.609 163.614 123.859 163.649 124.134C163.683 124.409 163.606 124.686 163.436 124.905C163.266 125.123 163.016 125.265 162.741 125.299L152.277 126.601C152.002 126.635 151.724 126.559 151.505 126.389C151.287 126.218 151.145 125.968 151.11 125.693C151.094 125.557 151.104 125.418 151.14 125.286C151.177 125.154 151.239 125.03 151.323 124.922C151.408 124.814 151.513 124.723 151.632 124.656C151.751 124.588 151.883 124.544 152.019 124.528Z" fill="#576B81"/>
<path d="M141.435 47.1271C141.47 47.402 141.612 47.652 141.831 47.8222C142.049 47.9923 142.327 48.0687 142.602 48.0346L153.066 46.7338C153.341 46.6993 153.591 46.5572 153.761 46.3385C153.931 46.1198 154.008 45.8426 153.974 45.5676C153.944 45.3417 153.842 45.1315 153.682 44.9692C153.522 44.8069 153.314 44.7013 153.088 44.6687C153.304 44.587 153.487 44.4359 153.609 44.2392C153.73 44.0425 153.782 43.8111 153.758 43.5814C153.733 43.3516 153.633 43.1365 153.473 42.9696C153.314 42.8028 153.103 42.6936 152.875 42.6592C153.115 42.5699 153.314 42.3954 153.434 42.1689C153.554 41.9423 153.586 41.6795 153.525 41.4306C153.464 41.1817 153.313 40.964 153.102 40.819C152.89 40.674 152.633 40.6119 152.378 40.6444L141.914 41.9462C141.664 41.9771 141.433 42.0977 141.264 42.2858C141.095 42.4739 141.001 42.7167 140.997 42.9693C140.994 43.2218 141.083 43.467 141.246 43.6594C141.41 43.8518 141.638 43.9783 141.888 44.0156C141.671 44.0966 141.487 44.2474 141.365 44.4443C141.243 44.6412 141.191 44.873 141.215 45.1032C141.24 45.3334 141.34 45.5489 141.5 45.7158C141.661 45.8827 141.872 45.9915 142.101 46.0251C141.883 46.1079 141.699 46.2615 141.578 46.4613C141.458 46.661 141.407 46.8954 141.435 47.1271Z" fill="#576B81"/>
<line x1="0.5" y1="144.298" x2="209.5" y2="144.298" stroke="#2A2E39" stroke-linecap="round"/>
</svg>
