<svg width="16" height="16" viewBox="0 0 16 16" fill="none" xmlns="http://www.w3.org/2000/svg">
    <path d="M13.4996 13.9997C13.434 13.9998 13.3689 13.9869 13.3083 13.9618C13.2476 13.9366 13.1925 13.8997 13.1462 13.8532L2.14621 2.85317C2.0564 2.75864 2.00707 2.63277 2.00874 2.50239C2.01041 2.37201 2.06294 2.24744 2.15514 2.15524C2.24735 2.06303 2.37192 2.0105 2.5023 2.00883C2.63268 2.00716 2.75855 2.05649 2.85308 2.1463L13.8531 13.1463C13.923 13.2162 13.9705 13.3053 13.9898 13.4023C14.0091 13.4992 13.9992 13.5997 13.9614 13.691C13.9235 13.7824 13.8595 13.8605 13.7773 13.9154C13.6951 13.9703 13.5985 13.9997 13.4996 13.9997ZM7.98902 11.9997C6.69246 11.9997 5.44215 11.616 4.27277 10.8591C3.20808 10.1716 2.24965 9.18692 1.5009 8.01536V8.01286C2.12402 7.12005 2.80652 6.36505 3.53965 5.7563C3.54628 5.75076 3.55169 5.7439 3.55553 5.73615C3.55938 5.72841 3.56158 5.71996 3.56199 5.71132C3.5624 5.70269 3.56102 5.69406 3.55792 5.68599C3.55483 5.67792 3.5501 5.67057 3.54402 5.66442L2.92152 5.04286C2.91046 5.03171 2.8956 5.02513 2.87991 5.02444C2.86422 5.02374 2.84884 5.02898 2.83683 5.03911C2.05808 5.69536 1.33527 6.50036 0.678084 7.44286C0.565017 7.60514 0.502746 7.79738 0.499185 7.99513C0.495624 8.19289 0.550933 8.38724 0.658084 8.55349C1.4834 9.84505 2.54558 10.9329 3.72933 11.6988C5.06215 12.5622 6.49652 12.9997 7.98902 12.9997C8.79463 12.9972 9.59454 12.8645 10.3578 12.6066C10.3678 12.6032 10.3769 12.5973 10.384 12.5894C10.3912 12.5815 10.3962 12.5719 10.3986 12.5616C10.401 12.5512 10.4007 12.5404 10.3978 12.5302C10.3948 12.52 10.3894 12.5107 10.3818 12.5032L9.70746 11.8288C9.69193 11.8137 9.67274 11.8028 9.65175 11.7973C9.63077 11.7919 9.60872 11.7919 9.58777 11.7976C9.0655 11.932 8.52833 12 7.98902 11.9997ZM15.3384 7.45599C14.5115 6.17724 13.4387 5.09099 12.2362 4.31442C10.9059 3.45442 9.43715 2.99974 7.98902 2.99974C7.19195 3.00115 6.4008 3.13669 5.64871 3.40067C5.63869 3.40416 5.62972 3.41014 5.62265 3.41805C5.61558 3.42596 5.61064 3.43554 5.60829 3.44589C5.60595 3.45624 5.60628 3.46701 5.60925 3.4772C5.61222 3.48738 5.61773 3.49665 5.62527 3.50411L6.29871 4.17755C6.31439 4.19296 6.33385 4.20396 6.35514 4.20945C6.37643 4.21494 6.39879 4.21471 6.41996 4.2088C6.93151 4.07042 7.45908 4.00012 7.98902 3.99974C9.26058 3.99974 10.5071 4.38817 11.6937 5.15599C12.7784 5.85599 13.7481 6.83974 14.4987 7.99974C14.4993 8.00045 14.4996 8.00133 14.4996 8.00224C14.4996 8.00314 14.4993 8.00402 14.4987 8.00474C13.9538 8.86253 13.2777 9.62947 12.495 10.2776C12.4883 10.2831 12.4828 10.2899 12.4789 10.2977C12.475 10.3054 12.4727 10.3139 12.4723 10.3226C12.4718 10.3313 12.4732 10.34 12.4763 10.3481C12.4794 10.3562 12.4842 10.3636 12.4903 10.3697L13.1121 10.9913C13.1232 11.0024 13.1379 11.009 13.1535 11.0097C13.1692 11.0105 13.1845 11.0054 13.1965 10.9954C14.0322 10.2918 14.7555 9.46475 15.3415 8.54286C15.4451 8.38041 15.4999 8.19163 15.4993 7.99897C15.4988 7.8063 15.4429 7.61784 15.3384 7.45599Z" fill="#969696"/>
    <path d="M7.99966 5C7.77494 4.99988 7.55093 5.02504 7.33184 5.075C7.32078 5.0773 7.31054 5.08255 7.30223 5.09021C7.29391 5.09786 7.28782 5.10763 7.28462 5.11846C7.28141 5.1293 7.2812 5.14081 7.28402 5.15175C7.28683 5.1627 7.29256 5.17268 7.30059 5.18063L10.819 8.69813C10.827 8.70616 10.837 8.71189 10.8479 8.7147C10.8589 8.71752 10.8704 8.71731 10.8812 8.7141C10.892 8.71089 10.9018 8.70481 10.9094 8.69649C10.9171 8.68818 10.9224 8.67794 10.9247 8.66688C11.0248 8.22751 11.0247 7.77123 10.9244 7.33191C10.824 6.89259 10.626 6.48152 10.345 6.12923C10.064 5.77695 9.70719 5.49249 9.30117 5.297C8.89514 5.1015 8.45029 4.99999 7.99966 5ZM5.18028 7.30188C5.17233 7.29384 5.16235 7.28811 5.15141 7.2853C5.14046 7.28249 5.12896 7.28269 5.11812 7.2859C5.10728 7.28911 5.09752 7.29519 5.08986 7.30351C5.08221 7.31182 5.07695 7.32206 5.07466 7.33313C4.96133 7.82823 4.97556 8.34401 5.11601 8.83212C5.25647 9.32022 5.51855 9.76468 5.8777 10.1238C6.23685 10.483 6.68131 10.7451 7.16941 10.8855C7.65752 11.026 8.1733 11.0402 8.66841 10.9269C8.67947 10.9246 8.68971 10.9193 8.69802 10.9117C8.70634 10.904 8.71242 10.8942 8.71563 10.8834C8.71884 10.8726 8.71905 10.8611 8.71623 10.8501C8.71342 10.8392 8.70769 10.8292 8.69966 10.8213L5.18028 7.30188Z" fill="#969696"/>
</svg>
