<svg width="310" height="190" viewBox="0 0 429 549" fill="none" xmlns="http://www.w3.org/2000/svg">
<g clip-path="url(#clip0_3285_4014)">
<path d="M125.904 292.153L122.389 295.331L125.904 292.153Z" fill="#ABBAC2"/>
<path d="M114.72 301.368C112.003 303.274 109.127 304.863 106.251 306.292L106.092 305.975C108.968 304.704 111.844 303.115 114.72 301.368Z" fill="#ABBAC2"/>
<path d="M97.1441 309.946C93.9486 310.9 90.7531 311.694 87.5575 312.17V311.694C90.7531 311.217 93.9486 310.423 97.1441 309.47V309.946Z" fill="#ABBAC2"/>
<path d="M77.6514 313.124C74.2961 313.124 71.1005 312.965 67.905 312.488L68.0648 312.012C71.2603 312.488 74.6156 312.806 77.8111 312.806L77.6514 313.124Z" fill="#ABBAC2"/>
<path d="M58.3184 310.105C55.1229 309.152 52.0871 307.722 49.2112 306.292L49.5307 305.816C52.4067 307.404 55.4424 308.675 58.4782 309.629L58.3184 310.105Z" fill="#ABBAC2"/>
<path d="M41.0625 300.891C38.5061 298.826 36.1095 296.602 34.0324 294.06L34.5117 293.583C36.5888 295.966 38.9855 298.349 41.5419 300.414L41.0625 300.891Z" fill="#ABBAC2"/>
<path d="M27.9609 286.275C26.2033 283.575 24.6056 280.715 23.1676 277.697L23.8067 277.379C25.2447 280.238 26.8424 283.098 28.6 285.799L27.9609 286.275Z" fill="#ABBAC2"/>
<path d="M19.3329 268.641C18.3743 265.464 17.5754 262.287 17.0961 259.109L17.895 258.951C18.3743 262.128 19.1732 265.305 20.1318 268.324L19.3329 268.641Z" fill="#ABBAC2"/>
<path d="M17.0961 249.26C17.4156 247.671 17.895 246.082 18.8536 244.653C19.8123 243.223 21.0905 242.111 22.6882 241.316L23.0078 241.952C21.5698 242.746 20.2916 243.699 19.4927 244.97C18.6938 246.241 18.2145 247.83 17.895 249.419L17.0961 249.26Z" fill="#ABBAC2"/>
<path d="M32.2748 240.046C33.0737 240.363 33.8726 240.84 34.3519 241.634C34.8313 242.429 34.991 243.223 34.991 244.176C34.991 245.924 34.3519 247.512 33.3933 248.942L32.9139 248.624C33.8726 247.353 34.3519 245.765 34.3519 244.176C34.3519 243.382 34.1921 242.587 33.8726 241.952C33.553 241.316 32.9139 240.84 32.1151 240.681L32.2748 240.046Z" fill="#ABBAC2"/>
<path d="M24.4458 252.755C21.0905 252.914 17.8949 252.278 14.6994 251.166L14.8592 250.689C17.8949 251.802 21.0905 252.278 24.4458 252.278V252.755Z" fill="#ABBAC2"/>
<path d="M6.39101 245.765C4.15414 243.382 2.55638 240.363 1.59772 237.186L1.91727 237.027C2.87593 240.046 4.4737 243.064 6.55079 245.447L6.39101 245.765Z" fill="#ABBAC2"/>
<path d="M-2.03213e-05 227.654C-0.159797 224.318 -2.03332e-05 221.141 0.479309 217.963H0.639086C0.159756 221.141 -2.03332e-05 224.477 0.319533 227.654H-2.03213e-05Z" fill="#ABBAC2"/>
<path d="M2.71619 208.431L4.15418 203.824L2.71619 208.431Z" fill="#ABBAC2"/>
<path d="M335.051 5.7192L339.525 3.97168L335.051 5.7192Z" fill="#ABBAC2"/>
<path d="M348.952 1.27092C352.147 0.635461 355.343 0.158865 358.698 0V0.317731C355.503 0.476596 352.147 0.953192 348.952 1.58865V1.27092Z" fill="#ABBAC2"/>
<path d="M368.604 0.158813C371.8 0.476544 375.155 0.95314 378.351 1.74747L378.191 2.22406C374.996 1.42974 371.8 0.95314 368.604 0.63541V0.158813Z" fill="#ABBAC2"/>
<path d="M387.618 4.60706C390.654 5.87798 393.689 7.30777 396.406 8.89642L396.246 9.37302C393.53 7.6255 390.494 6.19571 387.458 5.08365L387.618 4.60706Z" fill="#ABBAC2"/>
<path d="M404.394 14.6156C406.951 16.6809 409.188 19.0638 411.265 21.6057L410.785 21.9234C408.708 19.3816 406.471 17.1574 404.075 14.9333L404.394 14.6156Z" fill="#ABBAC2"/>
<path d="M416.857 29.8667C418.455 32.7263 419.733 35.7447 420.851 38.922L420.212 39.0809C419.094 36.0625 417.816 33.044 416.378 30.1844L416.857 29.8667Z" fill="#ABBAC2"/>
<path d="M423.248 48.295C423.887 51.4724 424.207 54.8085 424.526 57.9858H423.727C423.568 54.8085 423.088 51.4724 422.609 48.295H423.248Z" fill="#ABBAC2"/>
<path d="M424.526 67.8354C424.207 71.1716 423.727 74.3489 422.929 77.5262L422.289 77.3674C423.088 74.1901 423.568 71.0128 423.727 67.8354H424.526Z" fill="#ABBAC2"/>
<path d="M419.254 86.5816C418.295 88.0114 417.336 89.2823 415.898 90.2355C414.46 91.1887 412.863 91.6653 411.105 91.8241V91.1887C412.703 91.0298 414.301 90.5532 415.579 89.6C416.857 88.6468 417.975 87.3759 418.774 86.105L419.254 86.5816Z" fill="#ABBAC2"/>
<path d="M401.678 89.2823C401.039 88.6469 400.56 87.8526 400.4 87.0582C400.24 86.105 400.56 85.3107 400.879 84.5164C401.518 82.9277 402.637 81.6568 404.075 80.7036L404.394 81.1802C403.116 81.9745 401.998 83.2455 401.359 84.6752C401.039 85.4696 400.879 86.105 401.039 86.8994C401.199 87.6937 401.518 88.3292 402.158 88.8058L401.678 89.2823Z" fill="#ABBAC2"/>
<path d="M413.821 80.5447C416.857 81.6567 419.733 83.5631 422.13 85.7872L421.81 86.105C419.413 84.0397 416.537 82.1333 413.502 81.0213L413.821 80.5447Z" fill="#ABBAC2"/>
<path d="M427.722 93.7306C428.84 96.9079 429.16 100.244 428.84 103.421H428.361C428.68 100.244 428.361 96.9079 427.242 93.8895L427.722 93.7306Z" fill="#ABBAC2"/>
<path d="M426.603 112.953C425.485 115.972 424.047 118.99 422.449 121.691L422.289 121.532C423.887 118.672 425.325 115.813 426.444 112.635L426.603 112.953Z" fill="#ABBAC2"/>
<path d="M416.857 129.793L413.821 133.447L416.857 129.793Z" fill="#ABBAC2"/>
<path d="M373.04 205.585C386.704 191.998 386.704 169.97 373.04 156.383C359.375 142.796 337.22 142.796 323.555 156.383C309.89 169.97 309.89 191.998 323.555 205.585C337.22 219.172 359.375 219.172 373.04 205.585Z" fill="#F3F8FA"/>
<path d="M366.208 146.315C346.875 136.465 323.228 144.091 313.482 163.314C303.575 182.536 311.245 206.048 330.578 215.739C349.911 225.589 373.558 217.963 383.304 198.741C393.05 179.518 385.381 156.006 366.208 146.315ZM332.495 211.926C315.239 203.189 308.369 182.219 317.156 165.061C325.944 147.904 347.035 141.072 364.291 149.81C381.546 158.548 388.417 179.518 379.629 196.675C370.682 213.833 349.751 220.664 332.495 211.926Z" fill="#63909B"/>
<path opacity="0.23" d="M346.715 181.265L347.674 183.49L372.439 172.21L346.715 181.265Z" fill="#94C8E3"/>
<path d="M346.555 180.789L347.514 182.854L372.279 171.575L346.555 180.789Z" fill="#63909B"/>
<path d="M349.911 183.013C349.112 184.443 347.354 185.078 346.076 184.284C344.638 183.49 343.999 181.742 344.798 180.471C345.597 179.041 347.354 178.406 348.632 179.2C350.07 179.994 350.709 181.742 349.911 183.013Z" fill="#63909B"/>
<path opacity="0.23" d="M345.756 181.901C345.597 182.695 346.236 183.331 346.875 183.49C347.833 183.648 348.632 182.695 348.473 181.901C348.313 181.265 347.833 180.789 347.194 180.789C346.555 180.789 345.916 181.265 345.756 181.901Z" fill="#94C8E3"/>
<path d="M363.492 151.557C363.971 152.193 364.29 152.511 364.29 152.987C364.45 153.305 364.45 153.623 364.29 153.94C364.131 154.258 363.971 154.417 363.651 154.576C363.332 154.735 362.853 154.735 362.054 154.735C361.574 154.099 361.255 153.782 361.255 153.305C361.095 152.987 361.095 152.67 361.255 152.352C361.415 152.034 361.574 151.875 362.054 151.716C362.213 151.557 362.693 151.557 363.492 151.557Z" fill="#96CEE4"/>
<path d="M346.555 148.062C347.354 148.38 347.674 148.539 347.993 148.857C348.313 149.175 348.473 149.333 348.473 149.651C348.473 149.969 348.313 150.287 348.153 150.445C347.833 150.763 347.514 151.081 346.875 151.399C346.076 151.081 345.756 150.922 345.437 150.604C345.117 150.287 344.958 150.128 344.958 149.81C344.958 149.492 345.117 149.175 345.277 149.016C345.597 148.698 345.916 148.38 346.555 148.062Z" fill="#96CEE4"/>
<path d="M330.258 153.305C331.057 153.146 331.536 153.146 331.856 153.305C332.175 153.464 332.495 153.623 332.655 153.782C332.815 153.941 332.815 154.258 332.815 154.735C332.815 155.053 332.495 155.529 332.175 156.165C331.377 156.324 330.897 156.324 330.578 156.165C330.258 156.006 329.939 155.847 329.779 155.688C329.619 155.529 329.619 155.211 329.619 154.735C329.619 154.417 329.779 153.941 330.258 153.305Z" fill="#96CEE4"/>
<path d="M318.754 166.014C319.393 165.538 319.713 165.22 320.192 165.22C320.512 165.061 320.831 165.061 321.151 165.22C321.47 165.379 321.63 165.538 321.79 165.855C321.95 166.173 321.95 166.65 321.95 167.444C321.311 167.921 320.991 168.238 320.512 168.238C320.192 168.397 319.873 168.397 319.553 168.238C319.233 168.08 319.074 167.921 318.914 167.444C318.754 167.285 318.754 166.809 318.754 166.014Z" fill="#96CEE4"/>
<path d="M315.239 182.695C315.559 181.901 315.718 181.583 316.038 181.265C316.358 180.948 316.517 180.789 316.837 180.789C317.156 180.789 317.476 180.948 317.636 181.107C317.955 181.424 318.275 181.742 318.594 182.377C318.275 183.172 318.115 183.49 317.795 183.807C317.476 184.125 317.316 184.284 316.997 184.284C316.677 184.284 316.358 184.125 316.198 183.966C315.878 183.807 315.559 183.49 315.239 182.695Z" fill="#96CEE4"/>
<path d="M320.512 198.899C320.352 198.105 320.352 197.628 320.512 197.311C320.672 196.993 320.831 196.675 320.991 196.516C321.151 196.358 321.47 196.358 321.95 196.358C322.269 196.358 322.749 196.675 323.388 196.993C323.547 197.787 323.547 198.264 323.388 198.582C323.228 198.899 323.068 199.217 322.908 199.376C322.749 199.535 322.429 199.535 321.95 199.535C321.63 199.535 321.151 199.376 320.512 198.899Z" fill="#96CEE4"/>
<path d="M333.294 210.338C332.815 209.702 332.495 209.385 332.495 208.908C332.335 208.59 332.335 208.272 332.495 207.955C332.655 207.637 332.815 207.478 333.134 207.319C333.454 207.16 333.933 207.16 334.732 207.16C335.211 207.796 335.531 208.114 335.531 208.59C335.69 208.908 335.69 209.226 335.531 209.543C335.371 209.861 335.211 210.02 334.732 210.179C334.572 210.338 334.093 210.497 333.294 210.338Z" fill="#96CEE4"/>
<path d="M350.07 213.992C349.272 213.674 348.952 213.515 348.632 213.197C348.313 212.88 348.153 212.721 348.153 212.403C348.153 212.085 348.313 211.768 348.473 211.609C348.792 211.291 349.112 210.973 349.751 210.656C350.55 210.814 350.869 211.132 351.189 211.45C351.508 211.768 351.668 211.926 351.668 212.244C351.668 212.562 351.508 212.88 351.349 213.038C351.189 213.356 350.869 213.674 350.07 213.992Z" fill="#96CEE4"/>
<path d="M366.368 208.59C365.569 208.749 365.089 208.749 364.77 208.59C364.45 208.431 364.131 208.272 363.971 208.114C363.811 207.955 363.811 207.637 363.811 207.16C363.811 206.843 364.131 206.366 364.45 205.731C365.249 205.572 365.728 205.572 366.048 205.731C366.368 205.889 366.687 206.048 366.847 206.207C367.007 206.366 367.007 206.684 367.007 207.16C367.007 207.637 366.847 207.955 366.368 208.59Z" fill="#96CEE4"/>
<path d="M377.871 195.881C377.232 196.358 376.913 196.675 376.434 196.675C376.114 196.834 375.794 196.834 375.475 196.675C375.155 196.516 374.996 196.358 374.836 196.04C374.676 195.722 374.676 195.246 374.676 194.451C375.315 193.975 375.635 193.657 376.114 193.657C376.433 193.498 376.753 193.498 377.073 193.657C377.392 193.816 377.552 193.975 377.712 194.451C377.871 194.769 378.031 195.246 377.871 195.881Z" fill="#96CEE4"/>
<path d="M381.546 179.2C381.227 179.994 381.067 180.312 380.747 180.63C380.428 180.948 380.268 181.106 379.949 181.106C379.629 181.106 379.309 180.948 379.15 180.789C378.83 180.471 378.511 180.153 378.191 179.518C378.511 178.724 378.67 178.406 378.99 178.088C379.309 177.77 379.469 177.611 379.789 177.611C380.108 177.611 380.428 177.77 380.588 177.929C380.907 178.247 381.227 178.565 381.546 179.2Z" fill="#96CEE4"/>
<path d="M376.114 162.996C376.274 163.79 376.274 164.267 376.114 164.584C375.954 164.902 375.794 165.22 375.635 165.379C375.475 165.538 375.155 165.538 374.676 165.538C374.356 165.538 373.877 165.22 373.238 164.902C373.078 164.108 373.078 163.631 373.238 163.314C373.398 162.996 373.558 162.678 373.717 162.519C373.877 162.36 374.197 162.36 374.676 162.36C375.155 162.36 375.475 162.519 376.114 162.996Z" fill="#96CEE4"/>
<path opacity="0.23" d="M363.492 151.558C380.428 160.136 387.298 180.63 379.15 197.47C379.309 197.152 379.469 196.993 379.629 196.675C388.417 179.518 381.546 158.548 364.29 149.81C347.035 141.072 325.944 147.904 317.156 165.061C316.997 165.379 316.837 165.538 316.837 165.855C325.784 149.492 346.396 142.979 363.492 151.558Z" fill="#94C8E3"/>
<path d="M345.916 181.583C345.756 182.378 346.395 183.013 347.035 183.172C347.993 183.331 348.792 182.378 348.632 181.583C348.473 180.948 347.993 180.471 347.354 180.471C346.715 180.312 346.076 180.789 345.916 181.583Z" fill="#F3F8FA"/>
<path d="M341.917 137.415L331.99 139.074L333.182 146.124L343.109 144.465L341.917 137.415Z" fill="#63909B"/>
<path d="M326.264 142.026C324.826 141.708 324.985 129.158 334.732 127.251C342.241 125.821 348.952 136.465 347.354 138.372C345.756 139.96 335.531 144.409 326.264 142.026Z" fill="#96CEE4"/>
<path d="M335.371 129.316C336.489 128.999 337.608 128.999 338.726 129.316C339.845 129.634 340.803 130.27 341.602 130.905C342.401 131.699 343.2 132.494 343.679 133.447C343.999 133.924 344.159 134.4 344.318 134.877C344.478 135.353 344.638 135.989 344.638 136.465C344.318 136.148 343.999 135.671 343.52 135.194L342.561 134.082C341.922 133.288 341.283 132.653 340.484 132.017C339.046 131.064 337.448 129.952 335.371 129.316Z" fill="#CFF4FF"/>
<path d="M390.642 162.787L385.572 154.141L379.361 157.741L384.431 166.388L390.642 162.787Z" fill="#63909B"/>
<path d="M380.747 149.969C380.588 148.539 392.411 144.25 397.684 152.511C401.678 159.024 394.009 169.033 391.612 168.238C389.535 167.444 381.866 159.501 380.747 149.969Z" fill="#96CEE4"/>
<path d="M395.926 153.941C396.565 154.735 396.885 155.847 397.045 156.959C397.204 158.071 396.885 159.183 396.565 160.295C396.246 161.407 395.607 162.36 394.808 163.155C394.488 163.631 394.009 163.949 393.689 164.267C393.21 164.585 392.891 164.902 392.411 165.22C392.571 164.743 392.891 164.267 393.21 163.79L394.009 162.519C394.488 161.566 394.968 160.772 395.287 159.819C395.607 157.912 396.086 156.165 395.926 153.941Z" fill="#CFF4FF"/>
<path d="M282.804 301.368C282.804 301.368 301.019 272.295 292.231 263.081C283.603 253.867 284.562 240.363 270.022 230.514C255.483 220.505 252.447 223.841 230.717 226.86C208.828 229.878 201.478 221.776 188.696 238.457C176.233 254.82 183.423 260.698 206.591 255.614C220.492 252.596 235.511 244.494 246.375 264.034C259.797 287.864 282.804 301.368 282.804 301.368Z" fill="#99C97F"/>
<path d="M304.374 303.433C295.587 301.844 295.746 283.416 304.534 271.501C310.606 263.24 321.151 266.417 330.418 255.456C336.969 247.671 334.572 242.746 340.963 239.887C348.473 236.551 354.065 242.429 367.806 241.475C380.907 240.522 382.026 234.485 390.654 235.28C406.471 236.551 425.325 258.474 419.573 268.006C416.058 273.884 398.003 263.24 385.701 271.342C379.629 275.314 381.387 279.603 374.836 282.622C365.888 286.911 358.059 280.874 347.354 281.827C326.743 283.892 314.28 305.339 304.374 303.433Z" fill="#99C97F"/>
<path d="M296.066 429.254C293.509 412.414 291.912 395.575 291.273 378.576C290.953 370.156 290.953 361.578 291.273 353.158C291.592 344.738 292.231 336.159 293.509 327.739C294.947 319.319 297.025 310.9 300.859 303.274C304.534 295.49 308.848 288.182 314.44 281.668C325.465 268.641 340.004 258.474 356.302 253.39C352.307 254.661 348.313 256.568 344.638 258.474C342.721 259.427 340.963 260.539 339.046 261.651C337.288 262.763 335.531 264.034 333.773 265.146C326.903 270.071 320.672 275.949 315.239 282.463C309.807 288.976 305.493 296.284 301.978 303.909C298.143 311.535 296.226 319.637 294.947 328.057C292.391 344.738 292.072 361.736 292.391 378.576C292.551 386.996 293.03 395.575 293.509 403.995C294.308 412.256 295.107 420.834 296.066 429.254Z" fill="#406352"/>
<path d="M292.87 406.06C291.113 391.921 289.675 377.782 288.237 363.802L284.083 321.385C282.804 307.246 281.366 293.107 279.609 279.126C278.65 272.136 277.692 265.146 275.774 258.315C274.816 254.979 273.537 251.643 271.62 248.624C269.703 245.606 266.667 243.541 263.471 242.111C265.229 242.746 266.827 243.541 268.265 244.494C269.703 245.447 270.981 246.877 272.099 248.307C274.177 251.166 275.614 254.661 276.733 257.997C278.81 264.829 279.928 271.819 281.047 278.809C283.124 292.948 284.402 306.928 285.84 321.067C287.118 335.206 288.397 349.345 289.675 363.484C290.633 377.782 291.752 391.921 292.87 406.06Z" fill="#406352"/>
<path d="M296.066 376.034C296.066 376.034 283.923 350.457 292.231 343.626C300.54 336.795 301.498 325.674 314.92 318.843C328.341 312.012 330.258 315.03 347.993 319.796C365.569 324.562 372.918 318.525 381.067 333.617C389.216 348.392 382.505 352.522 364.131 346.009C353.106 342.196 341.762 333.935 330.098 349.027C315.878 367.297 296.066 376.034 296.066 376.034Z" fill="#99C97F"/>
<path d="M300.38 428.619C298.622 420.834 297.184 412.891 296.385 404.948C295.587 397.005 295.267 388.902 295.587 380.8C296.066 372.698 297.184 364.755 299.581 356.971C300.859 353.158 302.297 349.345 304.214 345.85C305.173 344.102 306.292 342.355 307.41 340.766C308.528 339.178 309.966 337.589 311.245 336.159C310.126 337.748 308.848 339.336 307.73 341.084C306.771 342.832 305.652 344.579 304.854 346.327C303.096 349.98 301.658 353.634 300.699 357.447C298.622 365.073 297.504 373.016 297.184 380.959C296.705 388.902 297.025 396.846 297.664 404.789L298.143 410.826L298.782 416.863L299.581 422.741L300.38 428.619Z" fill="#406352"/>
<path d="M317.476 291.359C320.671 288.023 324.187 284.846 327.861 281.986C329.779 280.556 331.696 279.285 333.773 278.173C335.85 277.061 338.087 276.108 340.484 275.79C342.88 275.473 345.277 275.631 347.674 276.108C350.07 276.426 352.307 277.061 354.544 277.538C359.018 278.491 363.651 279.285 367.965 278.332C370.042 277.856 371.96 276.743 373.717 275.155L378.83 270.389C380.588 268.8 382.345 267.37 384.422 265.941C386.499 264.67 388.577 263.717 390.973 263.081C393.21 262.446 395.607 262.128 398.003 262.128C400.4 262.128 402.797 262.446 405.033 263.081C407.27 263.558 409.507 264.352 411.744 264.67C412.863 264.829 414.141 264.829 414.78 263.875C415.259 262.922 415.099 261.651 414.94 260.539C415.099 261.651 415.419 262.922 414.94 264.034C414.62 264.67 414.141 264.987 413.502 265.146C412.863 265.305 412.223 265.305 411.744 265.146C409.347 264.829 407.111 264.193 404.874 263.716C402.637 263.24 400.24 262.922 398.003 263.081C395.766 263.24 393.37 263.558 391.293 264.193C386.979 265.464 383.304 268.324 379.949 271.501L374.836 276.267C373.078 278.014 370.841 279.285 368.445 279.921C363.651 281.192 358.858 280.08 354.225 279.126C349.751 278.173 345.117 276.902 340.644 277.22C338.407 277.538 336.33 278.332 334.252 279.285C332.175 280.238 330.258 281.509 328.341 282.78C324.506 285.163 320.831 288.182 317.476 291.359Z" fill="#406352"/>
<path d="M307.73 364.437C311.884 358.718 316.358 353.158 321.311 348.074C323.707 345.532 326.264 342.99 329.14 340.766C330.578 339.654 332.016 338.542 333.454 337.589C335.051 336.636 336.649 335.683 338.566 335.365C342.401 334.57 346.076 335.524 349.431 336.477C352.946 337.43 356.302 338.701 359.497 339.972C362.852 341.243 366.048 342.673 369.403 343.785C372.759 344.897 376.114 346.009 379.789 345.691C378.031 346.009 376.274 346.009 374.516 345.691C372.759 345.373 371.001 345.056 369.244 344.579C365.888 343.626 362.533 342.355 359.178 341.243C355.822 340.131 352.467 338.86 349.112 337.907C345.756 336.953 342.241 336.318 338.886 336.953C337.288 337.271 335.69 338.066 334.252 339.019C332.815 339.972 331.377 340.925 329.939 342.037C327.222 344.261 324.666 346.644 322.109 349.186C319.553 351.728 317.156 354.27 314.76 356.812C312.363 359.036 310.126 361.736 307.73 364.437Z" fill="#406352"/>
<path d="M244.778 254.82L252.607 264.987C255.163 268.324 257.879 271.66 260.436 274.996C263.152 278.332 265.868 281.509 268.744 284.528C270.182 286.117 271.62 287.546 273.218 288.976L275.614 291.041C276.413 291.677 277.372 292.312 278.171 292.948C274.336 291.041 270.981 288.182 267.945 285.322C264.75 282.463 262.033 279.126 259.317 275.949C256.601 272.613 254.045 269.277 251.648 265.782C249.092 262.128 246.695 258.474 244.778 254.82Z" fill="#406352"/>
<path d="M91.7117 227.654L48.2525 236.551L44.0983 209.702L86.7586 204.301L91.7117 227.654Z" fill="#DEF9FF"/>
<path d="M86.7586 204.619L44.0983 209.861L62.7921 186.826L86.7586 204.619Z" fill="#DEF9FF"/>
<path d="M44.0983 209.861L68.2246 221.617L86.7586 204.619" stroke="#96CEE4" stroke-miterlimit="10"/>
<path d="M48.572 230.355L58.4782 220.187" stroke="#96CEE4" stroke-miterlimit="10"/>
<path d="M87.0782 227.177L75.734 217.963" stroke="#96CEE4" stroke-miterlimit="10"/>
<path d="M46.8145 208.431L84.2022 203.824" stroke="#96CEE4" stroke-miterlimit="10"/>
<g opacity="0.31">
<path d="M270.022 230.514C255.483 220.505 252.447 223.841 230.717 226.86C208.828 229.878 201.478 221.776 188.696 238.457C176.233 254.82 183.423 260.698 206.591 255.614C220.492 252.596 235.511 244.494 246.375 264.034C246.855 264.987 247.494 265.941 247.973 266.894C250.21 259.427 255.323 253.231 262.033 250.372C268.265 247.83 274.336 244.653 280.088 240.999C277.851 237.345 274.816 233.691 270.022 230.514Z" fill="#42507F"/>
<path d="M284.083 321.385L288.237 363.802C289.675 377.941 291.113 392.08 292.87 406.06C291.912 391.921 290.633 377.782 289.515 363.643C288.397 349.504 286.959 335.365 285.68 321.226C285.361 318.207 285.041 315.189 284.722 312.012C284.242 311.694 283.603 311.217 283.124 310.9C283.444 314.395 283.763 317.89 284.083 321.385Z" fill="#42507F"/>
<path d="M334.732 127.092C325.145 128.999 324.985 141.549 326.264 141.867C328.341 142.343 330.418 142.502 332.495 142.502L332.974 145.044C324.826 148.539 317.795 154.735 313.482 163.155C306.451 176.976 308.369 193.021 317.316 204.619C331.696 183.648 340.803 157.753 342.721 129.634C340.484 127.887 337.608 126.616 334.732 127.092Z" fill="#42507F"/>
<path d="M297.504 375.24C301.658 373.175 313.482 366.82 324.346 355.541C318.594 345.373 311.724 336.318 303.895 328.216C300.06 333.3 297.823 338.542 293.35 342.514C293.829 337.589 294.308 332.664 295.107 327.739C295.427 325.515 295.906 323.132 296.385 320.908C295.906 320.59 295.427 320.114 295.107 319.796C294.468 322.338 293.989 324.88 293.669 327.58C292.87 332.982 292.231 338.542 291.912 344.102C288.397 347.756 289.355 355.382 291.273 362.372C291.273 367.773 291.273 373.175 291.592 378.576C292.231 395.575 293.829 412.414 296.385 429.254C295.427 420.834 294.628 412.414 294.149 403.995C293.509 395.575 293.03 387.155 293.03 378.576C292.87 374.605 292.87 370.792 292.87 366.82C294.468 371.427 296.066 374.922 296.385 375.875C296.226 377.464 296.066 379.212 296.066 380.8C295.746 388.902 296.066 396.846 296.865 404.948C297.664 412.891 299.102 420.834 300.859 428.619L300.06 422.741L299.261 416.863L298.622 410.826L298.143 404.789C297.504 396.846 297.184 388.902 297.664 380.959C297.184 379.053 297.344 377.146 297.504 375.24Z" fill="#42507F"/>
</g>
<path d="M238.546 272.772C238.546 261.651 244.618 251.802 253.885 247.989C301.019 228.607 334.892 176.976 334.892 116.448V77.6852H89.6346V116.289C89.6346 175.546 121.909 226.224 167.446 246.559C176.234 250.531 182.145 260.221 182.145 271.024V275.155C182.145 285.958 176.393 295.648 167.606 299.62C122.549 320.273 90.753 370.633 90.753 429.572V468.176H335.85V429.572C335.85 368.568 301.658 316.619 253.885 297.555C244.778 293.901 238.546 283.892 238.546 272.772Z" fill="#DEF9FF"/>
<path d="M82.1251 451.178H343.36C351.349 451.178 357.74 457.532 357.74 465.475V481.044C357.74 488.988 351.349 495.342 343.36 495.342H82.1251C74.1363 495.342 67.7452 488.988 67.7452 481.044V465.475C67.7452 457.532 74.1363 451.178 82.1251 451.178Z" fill="#63909B"/>
<path d="M101.778 430.843C101.778 430.843 102.577 403.2 108.968 381.595C115.359 359.989 136.449 329.963 158.179 319.002C179.908 307.881 180.388 309.311 192.85 311.694C205.313 313.918 209.467 303.433 223.048 304.863C236.789 306.292 279.449 307.087 300.859 351.887C322.269 396.528 323.388 432.908 323.388 432.908C323.388 432.908 132.934 446.094 101.778 430.843Z" fill="#96CEE4"/>
<path d="M307.73 170.304C307.73 170.304 265.708 162.043 244.778 176.817C223.847 191.592 149.551 149.175 118.874 170.304C118.874 170.304 133.573 218.599 179.269 236.551C207.07 252.437 214.26 280.397 220.172 264.193C225.445 249.895 248.452 235.438 256.761 230.673C257.72 230.196 258.518 229.719 259.317 229.243C259.477 229.084 259.637 229.084 259.637 229.084C283.923 214.945 301.978 191.909 307.73 170.304Z" fill="#96CEE4"/>
<path d="M210.905 290.565C212.982 292.153 215.698 291.359 216.977 289.453C219.054 286.752 217.616 281.509 214.899 280.397C212.822 279.603 209.946 281.351 209.147 284.21C208.508 286.434 208.988 289.135 210.905 290.565Z" fill="#96CEE4"/>
<path d="M204.035 275.949C205.313 276.902 206.911 276.426 207.869 275.314C209.147 273.566 208.349 270.389 206.591 269.753C205.313 269.277 203.555 270.389 203.076 272.136C202.437 273.407 202.756 274.996 204.035 275.949Z" fill="#96CEE4"/>
<path d="M252.926 111.365C264.59 116.131 280.727 120.102 298.143 115.018C307.41 112.318 312.044 108.664 315.079 111.365C322.429 117.878 312.044 153.623 294.149 179.518C269.863 214.786 232.155 230.831 228.8 225.589C226.883 222.57 237.907 213.833 246.535 196.04C260.436 167.285 257.72 135.035 252.926 111.365Z" fill="white"/>
<path d="M252.926 428.46C264.59 423.694 280.727 419.722 298.143 424.806C307.41 427.507 312.044 431.161 315.079 428.46C322.429 421.946 312.044 386.202 294.149 360.307C269.863 325.038 232.155 308.993 228.8 314.236C226.883 317.254 237.907 325.992 246.535 343.785C260.436 372.539 257.72 404.789 252.926 428.46Z" fill="white"/>
<path d="M233.593 254.82C234.232 255.138 227.522 265.305 229.599 278.491C231.037 288.658 236.789 294.695 235.67 295.807C234.712 296.761 228.161 292.789 225.604 286.117C220.172 272.613 232.794 254.343 233.593 254.82Z" fill="white"/>
<path d="M74.4558 467.541L143.32 467.859L212.183 468.017C235.191 468.176 258.039 468.017 281.047 468.017L315.399 467.859C326.903 467.859 338.407 467.7 349.751 467.541C338.247 467.859 326.743 468.335 315.399 468.653L281.047 469.288C258.039 469.606 235.191 469.606 212.183 469.765C189.175 469.606 166.327 469.606 143.32 469.129L108.968 468.494L74.4558 467.541Z" fill="#A1B0E6"/>
<path opacity="0.31" d="M334.732 77.6852H89.6346V102.627H334.732V77.6852Z" fill="#42507F"/>
<path d="M343.36 94.6837H82.1251C74.1363 94.6837 67.7452 88.3291 67.7452 80.3859V64.817C67.7452 56.8738 74.1363 50.5192 82.1251 50.5192H343.36C351.349 50.5192 357.74 56.8738 357.74 64.817V80.3859C357.74 88.3291 351.349 94.6837 343.36 94.6837Z" fill="#63909B"/>
<path d="M349.911 59.7334L281.047 59.4157L212.183 59.2568C189.175 59.0979 166.327 59.2568 143.32 59.2568L108.968 59.4157C97.4637 59.4157 85.9598 59.5745 74.6156 59.7334C86.1195 59.4157 97.6234 58.9391 108.968 58.6213L143.32 57.9859C166.327 57.6681 189.175 57.6681 212.183 57.5093C235.191 57.6681 258.039 57.6681 281.047 58.1447L315.399 58.7802L349.911 59.7334Z" fill="#CAEDFF"/>
<path opacity="0.2" d="M213.781 548.721C290.728 548.721 353.106 546.231 353.106 543.161C353.106 540.09 290.728 537.6 213.781 537.6C136.834 537.6 74.4558 540.09 74.4558 543.161C74.4558 546.231 136.834 548.721 213.781 548.721Z" fill="#42507F"/>
<path d="M179.589 1.58862C152.427 21.4468 117.116 34.6326 117.116 34.6326C126.383 61.9575 149.071 79.9092 149.071 79.9092C175.754 77.5263 216.178 44.4823 216.178 44.4823C202.756 42.5759 179.589 1.58862 179.589 1.58862ZM129.898 38.4454C128.62 39.0809 127.182 38.6043 126.383 37.1745C125.584 35.7447 126.064 34.3149 127.342 33.6794C128.62 33.044 130.058 33.5206 130.857 34.9504C131.656 36.2213 131.177 37.8099 129.898 38.4454ZM141.083 33.044C139.804 33.6794 138.366 33.2028 137.568 31.773C136.928 30.5021 137.248 28.9135 138.526 28.278C139.804 27.6425 141.242 28.1191 142.041 29.5489C142.84 30.8199 142.361 32.4085 141.083 33.044ZM152.267 27.6425C150.989 28.278 149.551 27.8014 148.752 26.3716C148.113 25.1007 148.432 23.512 149.711 22.8766C150.989 22.2411 152.427 22.7177 153.226 24.1475C154.025 25.4184 153.545 27.0071 152.267 27.6425ZM163.292 21.9234C162.013 22.5589 160.575 22.0823 159.777 20.6525C159.137 19.3815 159.457 17.7929 160.735 17.1574C162.013 16.522 163.451 16.9986 164.25 18.4284C164.889 19.6993 164.57 21.2879 163.292 21.9234ZM173.997 15.7276C172.718 16.3631 171.28 15.8865 170.482 14.4567C169.842 13.1858 170.162 11.5971 171.44 10.9617C172.718 10.3262 174.156 10.8028 174.955 12.2326C175.754 13.5035 175.275 15.0922 173.997 15.7276Z" fill="#DEF9FF"/>
<path d="M132.615 42.2582C132.615 42.2582 141.882 66.7234 157.38 74.1901Z" fill="#63909B"/>
<path d="M146.195 35.1093C146.195 35.1093 155.463 59.5745 170.961 67.0412Z" fill="#63909B"/>
<path d="M161.055 26.8483C161.055 26.8483 170.322 51.3135 185.82 58.7802Z" fill="#63909B"/>
<path d="M175.914 18.1106C175.914 18.1106 185.181 42.5759 200.679 50.0425Z" fill="#63909B"/>
<path d="M134.052 55.9206C134.052 55.9206 170.961 37.6511 189.655 23.5121Z" fill="#63909B"/>
<path d="M143.479 69.9007C143.479 69.9007 177.831 57.3504 197.963 34.4738Z" fill="#63909B"/>
<path d="M147.314 59.4156C148.592 59.4156 149.87 59.4156 151.308 59.5745L150.669 60.2099C150.509 58.939 150.509 57.8269 150.669 56.556C150.829 55.2851 151.308 54.173 151.947 53.2198C151.788 54.4908 151.788 55.6028 151.788 56.7149C151.788 57.8269 151.788 59.0979 151.788 60.2099V61.0043L151.149 60.8454C149.711 60.3688 148.432 60.0511 147.314 59.4156Z" fill="#99ECFF"/>
<path d="M185.82 52.5844C187.098 52.5844 188.377 52.5844 189.815 52.7433L189.175 53.3787C189.016 52.1078 189.016 50.9958 189.175 49.7248C189.335 48.4539 189.815 47.3419 190.454 46.3887C190.294 47.6596 190.294 48.7717 190.294 49.8837C190.294 50.9958 190.294 52.2667 190.294 53.3787V54.1731L189.655 54.0142C188.217 53.5376 186.939 53.2199 185.82 52.5844Z" fill="#99ECFF"/>
<path d="M151.468 36.8567C152.746 36.2212 154.344 36.0624 155.782 36.2212C157.22 36.3801 158.658 37.0156 159.617 37.9688C158.179 37.8099 156.901 37.4922 155.622 37.3333C154.184 37.1744 152.906 37.0156 151.468 36.8567Z" fill="#99ECFF"/>
<path d="M154.983 40.8283C154.504 39.5574 154.664 38.1276 154.983 36.8567C155.303 35.5858 156.102 34.3148 157.22 33.5205C156.901 34.7914 156.421 36.0624 156.102 37.1744C155.782 38.2865 155.463 39.5574 154.983 40.8283Z" fill="#99ECFF"/>
</g>
<defs>
<clipPath id="clip0_3285_4014">
<rect width="429" height="548.721" fill="white"/>
</clipPath>
</defs>
</svg>
