<svg width="332" height="190" viewBox="0 0 867 514" fill="none" xmlns="http://www.w3.org/2000/svg">
<g opacity="0.28">
<path d="M245.438 0H167.823V105.745H245.438V0Z" fill="#F5F5F5"/>
</g>
<g opacity="0.28">
<path d="M225.777 13.2981H148.162V119.044H225.777V13.2981Z" fill="#E0E0E0"/>
</g>
<g opacity="0.28">
<path d="M591.621 157.915C591.621 157.915 591.493 157.915 591.107 157.915C590.722 157.915 590.208 157.915 589.565 157.915C588.28 157.915 586.224 157.915 583.654 157.915C578.514 157.915 571.061 157.915 561.68 158.043C542.919 158.043 516.576 158.171 485.993 158.171H485.736V157.915C484.194 152.545 485.093 146.407 488.691 141.548C492.161 136.817 498.2 133.748 504.369 133.876L504.112 134.26C503.598 132.725 503.469 130.935 503.469 129.145C503.726 123.263 507.067 117.637 512.079 115.08C517.09 112.395 523.387 112.522 528.141 115.208L527.756 115.335C530.454 108.686 536.237 103.955 542.405 101.782C548.702 99.48 555.641 99.8636 561.038 102.677C566.563 105.49 570.418 110.221 572.603 115.208C574.787 120.194 575.173 125.565 574.016 130.296L573.759 130.04C576.843 129.656 579.927 130.168 582.498 131.319C585.068 132.342 587.381 134.004 589.051 135.794C589.951 136.689 590.593 137.712 591.107 138.735C591.621 139.758 592.007 140.781 592.135 141.804C592.649 143.85 592.778 145.768 592.906 147.43C593.035 150.882 592.649 153.568 592.264 155.23C592.007 156.125 591.878 156.764 591.75 157.148C591.75 157.659 591.621 157.915 591.621 157.915Z" fill="#EBEBEB"/>
</g>
<g opacity="0.28">
<path d="M793.497 107.663C782.96 109.454 775.892 119.299 777.563 129.784C779.362 140.269 789.257 147.302 799.794 145.64C808.789 144.105 815.342 136.689 815.856 127.994L821.125 127.099L823.952 121.217L828.064 125.948L834.746 124.798L837.702 118.916L841.814 123.647L847.468 122.752L849.138 119.171L851.708 122.112L855.049 121.601L858.647 116.742L852.351 109.837L813.029 116.358C809.046 109.965 801.336 106.385 793.497 107.663ZM782.703 128.889C782.189 125.821 784.245 123.007 787.329 122.496C790.413 121.985 793.24 124.03 793.754 127.099C794.268 130.168 792.212 132.981 789.128 133.492C786.044 134.004 783.217 131.958 782.703 128.889Z" fill="#EBEBEB"/>
</g>
<g opacity="0.28">
<path d="M773.836 254.71L776.278 298.312C776.406 299.847 777.691 301.125 779.233 301.125L858.133 301.637C859.804 301.637 861.089 300.358 861.089 298.696L861.346 264.811C861.346 263.149 860.061 261.87 858.39 261.87H809.945C809.174 261.87 808.403 261.615 807.889 260.975L799.537 252.664C799.023 252.153 798.252 251.769 797.481 251.769L777.049 251.641C775.121 251.641 773.708 253.048 773.836 254.71Z" fill="#EBEBEB"/>
<path d="M861.299 256.821L775.203 256.194L774.825 307.468L860.921 308.096L861.299 256.821Z" fill="#F5F5F5"/>
<path d="M768.311 260.72L774.479 314.168C774.607 315.063 775.378 315.83 776.406 315.83L860.318 316.469C861.346 316.469 862.117 315.702 862.245 314.679L866.872 261.359C867 260.208 866.101 259.313 864.944 259.313L770.238 258.674C769.082 258.546 768.182 259.569 768.311 260.72Z" fill="#EBEBEB"/>
</g>
<path d="M845.155 512.744C845.155 512.872 660.37 513.128 432.536 513.128C204.575 513.128 19.9177 513 19.9177 512.744C19.9177 512.489 204.575 512.361 432.536 512.361C660.498 512.361 845.155 512.489 845.155 512.744Z" fill="#263238"/>
<path d="M145.592 225.684H0.257004V322.479H145.592V225.684Z" fill="#FAFAFA"/>
<path d="M106.014 284.375H102.159V261.231C102.159 255.605 97.6612 251.13 92.0071 251.13C86.353 251.13 81.8555 255.605 81.8555 261.231V284.375H78.0004V261.231C78.0004 253.559 84.297 247.294 92.0071 247.294C99.7172 247.294 106.014 253.559 106.014 261.231V284.375Z" fill="#263238"/>
<path d="M106.785 298.568H77.2294C74.7879 298.568 72.8604 296.65 72.8604 294.221V278.365C72.8604 275.936 74.7879 274.018 77.2294 274.018H106.785C109.226 274.018 111.154 275.936 111.154 278.365V294.221C111.154 296.65 109.226 298.568 106.785 298.568Z" fill="#263238"/>
<path d="M92.0071 286.293C90.2081 286.293 88.7946 284.886 88.7946 283.096C88.7946 281.306 90.2081 279.9 92.0071 279.9C93.8061 279.9 95.2196 281.306 95.2196 283.096C95.2196 284.886 93.8061 286.293 92.0071 286.293Z" fill="#455A64"/>
<path d="M92.9066 284.375H91.1076V290.896H92.9066V284.375Z" fill="#455A64"/>
<path d="M71.8324 284.119C77.2294 281.817 81.0845 276.319 81.0845 269.798C81.0845 261.231 74.6594 254.326 66.5638 254.326C58.5967 254.326 52.0431 261.231 51.9146 269.67C51.9146 276.191 55.7697 281.817 61.1667 284.119C38.8075 287.444 39.8355 311.738 39.8355 311.738L92.7781 311.994C92.9066 311.866 94.0631 287.444 71.8324 284.119Z" fill="#79D0E7"/>
<path d="M145.464 322.479C145.464 322.479 145.464 321.84 145.464 320.689C145.464 319.538 145.464 317.748 145.464 315.574C145.464 311.099 145.464 304.45 145.335 296.139C145.335 279.26 145.207 255.093 145.207 225.684L145.464 225.94C105.371 225.94 54.8702 225.94 0.257003 226.068L0.642508 225.684C0.642508 260.208 0.642508 292.942 0.642508 322.479L0.257003 322.223C43.048 322.223 79.2855 322.351 104.857 322.351C117.707 322.351 127.859 322.351 134.798 322.479C138.268 322.479 140.966 322.479 142.765 322.479C140.966 322.479 138.268 322.479 134.927 322.479C127.988 322.479 117.836 322.479 105.114 322.607C79.414 322.607 43.048 322.735 0.257003 322.735H0V322.479C0 292.942 0 260.208 0 225.684V225.301H0.385505C55.1272 225.301 105.628 225.301 145.592 225.428H145.849V225.684C145.849 255.221 145.721 279.388 145.721 296.266C145.721 304.706 145.721 311.227 145.592 315.702C145.592 317.876 145.592 319.666 145.592 320.817C145.464 321.968 145.464 322.479 145.464 322.479Z" fill="#263238"/>
<path d="M145.464 237.32C145.464 237.448 112.953 237.704 72.8604 237.704C32.7679 237.704 0.257004 237.576 0.257004 237.32C0.257004 237.192 32.7679 236.936 72.8604 236.936C112.953 236.936 145.464 237.064 145.464 237.32Z" fill="#263238"/>
<path d="M9.76612 231.438C9.76612 232.205 9.12361 232.972 8.2241 232.972C7.32459 232.972 6.68208 232.333 6.68208 231.438C6.68208 230.671 7.32459 229.904 8.2241 229.904C9.12361 229.904 9.76612 230.671 9.76612 231.438Z" fill="#263238"/>
<path d="M14.6492 231.438C14.6492 232.205 14.0067 232.972 13.1072 232.972C12.3361 232.972 11.5651 232.333 11.5651 231.438C11.5651 230.671 12.2076 229.904 13.1072 229.904C14.0067 230.032 14.6492 230.671 14.6492 231.438Z" fill="#263238"/>
<path d="M19.9177 231.438C19.9177 232.205 19.2752 232.972 18.3757 232.972C17.6047 232.972 16.8337 232.333 16.8337 231.438C16.8337 230.671 17.4762 229.904 18.3757 229.904C19.2752 230.032 19.9177 230.671 19.9177 231.438Z" fill="#263238"/>
<path d="M145.464 322.479C145.464 322.479 145.464 321.84 145.464 320.689C145.464 319.538 145.464 317.748 145.464 315.574C145.464 311.099 145.464 304.45 145.335 296.139C145.335 279.26 145.207 255.093 145.207 225.684L145.464 225.94C105.371 225.94 54.8702 225.94 0.257003 226.068L0.642508 225.684C0.642508 260.208 0.642508 292.942 0.642508 322.479L0.257003 322.223C43.048 322.223 79.2855 322.351 104.857 322.351C117.707 322.351 127.859 322.351 134.798 322.479C138.268 322.479 140.966 322.479 142.765 322.479C140.966 322.479 138.268 322.479 134.927 322.479C127.988 322.479 117.836 322.479 105.114 322.607C79.414 322.607 43.048 322.735 0.257003 322.735H0V322.479C0 292.942 0 260.208 0 225.684V225.301H0.385505C55.1272 225.301 105.628 225.301 145.592 225.428H145.849V225.684C145.849 255.221 145.721 279.388 145.721 296.266C145.721 304.706 145.721 311.227 145.592 315.702C145.592 317.876 145.592 319.666 145.592 320.817C145.464 321.968 145.464 322.479 145.464 322.479Z" fill="#263238"/>
<path d="M71.9609 325.676C71.8324 325.676 71.5754 324.909 71.5754 324.141C71.5754 323.246 71.7039 322.607 71.9609 322.607C72.0894 322.607 72.3464 323.374 72.3464 324.141C72.2179 325.036 72.0894 325.676 71.9609 325.676Z" fill="#263238"/>
<path d="M71.9609 339.741C71.8324 339.741 71.5754 338.207 71.5754 336.289C71.5754 334.371 71.7039 332.836 71.9609 332.836C72.0894 332.836 72.3464 334.371 72.3464 336.289C72.2179 338.079 72.0894 339.741 71.9609 339.741Z" fill="#263238"/>
<path d="M71.9609 353.678C71.8324 353.678 71.5754 352.144 71.5754 350.226C71.5754 348.308 71.7039 346.774 71.9609 346.774C72.0894 346.774 72.3464 348.308 72.3464 350.226C72.2179 352.144 72.0894 353.678 71.9609 353.678Z" fill="#263238"/>
<path d="M71.9609 367.616C71.8324 367.616 71.5754 366.081 71.5754 364.163C71.5754 362.245 71.7039 360.711 71.9609 360.711C72.0894 360.711 72.3464 362.245 72.3464 364.163C72.2179 366.081 72.0894 367.616 71.9609 367.616Z" fill="#263238"/>
<path d="M71.9609 381.681C71.8324 381.681 71.5754 380.147 71.5754 378.229C71.5754 376.311 71.7039 374.776 71.9609 374.776C72.0894 374.776 72.3464 376.311 72.3464 378.229C72.2179 380.147 72.0894 381.681 71.9609 381.681Z" fill="#263238"/>
<path d="M75.1734 391.783C75.1734 391.911 73.7599 392.166 71.9609 392.166C71.3184 391.527 71.8324 392.038 71.5754 391.783V391.655V391.527V391.271C71.5754 391.143 71.5754 390.888 71.5754 390.632C71.5754 390.248 71.5754 389.865 71.7039 389.609C71.7039 388.97 71.8324 388.714 71.9609 388.714C72.0894 388.714 72.0894 389.097 72.2179 389.609C72.2179 389.865 72.2179 390.248 72.3464 390.632C72.3464 390.888 72.3464 391.015 72.3464 391.271V391.527V391.655V391.783C72.2179 391.655 72.7319 392.166 71.9609 391.399C73.6314 391.527 75.1734 391.655 75.1734 391.783Z" fill="#263238"/>
<path d="M87.7666 391.783C87.7666 391.91 86.3531 392.166 84.554 392.166C82.755 392.166 81.3415 392.038 81.3415 391.783C81.3415 391.527 82.755 391.399 84.554 391.399C86.3531 391.527 87.7666 391.655 87.7666 391.783Z" fill="#263238"/>
<path d="M100.36 391.783C100.36 391.91 98.9462 392.166 97.1472 392.166C95.3482 392.166 93.9346 392.038 93.9346 391.783C93.9346 391.527 95.3482 391.399 97.1472 391.399C98.9462 391.527 100.36 391.655 100.36 391.783Z" fill="#263238"/>
<path d="M112.953 391.783C112.953 391.91 111.539 392.166 109.74 392.166C107.941 392.166 106.528 392.038 106.528 391.783C106.528 391.527 107.941 391.399 109.74 391.399C111.539 391.527 112.953 391.655 112.953 391.783Z" fill="#263238"/>
<path d="M125.675 391.783C125.675 391.91 124.261 392.166 122.462 392.166C120.663 392.166 119.249 392.038 119.249 391.783C119.249 391.527 120.663 391.399 122.462 391.399C124.261 391.527 125.675 391.655 125.675 391.783Z" fill="#263238"/>
<path d="M138.268 391.783C138.268 391.91 136.854 392.166 135.055 392.166C133.256 392.166 131.843 392.038 131.843 391.783C131.843 391.527 133.256 391.399 135.055 391.399C136.854 391.527 138.268 391.655 138.268 391.783Z" fill="#263238"/>
<path d="M150.861 391.783C150.861 391.91 149.447 392.166 147.648 392.166C145.849 392.166 144.436 392.038 144.436 391.783C144.436 391.527 145.849 391.399 147.648 391.399C149.447 391.527 150.861 391.655 150.861 391.783Z" fill="#263238"/>
<path d="M163.454 391.783C163.454 391.91 162.04 392.166 160.241 392.166C158.442 392.166 157.029 392.038 157.029 391.783C157.029 391.527 158.442 391.399 160.241 391.399C162.04 391.527 163.454 391.655 163.454 391.783Z" fill="#263238"/>
<path d="M176.176 391.783C176.176 391.91 174.762 392.166 172.963 392.166C171.164 392.166 169.751 392.038 169.751 391.783C169.751 391.527 171.164 391.399 172.963 391.399C174.762 391.527 176.176 391.655 176.176 391.783Z" fill="#263238"/>
<path d="M188.769 391.783C188.769 391.91 187.355 392.166 185.556 392.166C183.757 392.166 182.344 392.038 182.344 391.783C182.344 391.527 183.757 391.399 185.556 391.399C187.355 391.527 188.769 391.655 188.769 391.783Z" fill="#263238"/>
<path d="M201.362 391.783C201.362 391.91 199.948 392.166 198.149 392.166C196.35 392.166 194.937 392.038 194.937 391.783C194.937 391.527 196.35 391.399 198.149 391.399C199.948 391.527 201.362 391.655 201.362 391.783Z" fill="#263238"/>
<path d="M210.871 391.783C210.871 391.91 210.1 392.166 209.329 392.166C208.43 392.166 207.659 392.038 207.659 391.783C207.659 391.527 208.43 391.399 209.329 391.399C210.229 391.527 210.871 391.655 210.871 391.783Z" fill="#263238"/>
<path d="M212.413 29.5371H134.798V135.283H212.413V29.5371Z" fill="white"/>
<path d="M212.413 135.283C212.413 135.283 212.413 135.155 212.413 134.771C212.413 134.388 212.413 133.876 212.413 133.237C212.413 131.958 212.413 129.912 212.413 127.483C212.413 122.368 212.413 115.08 212.285 105.745C212.285 87.077 212.156 60.7365 212.028 29.5371L212.413 29.9207C189.026 29.9207 162.683 29.9207 134.798 30.0486L135.184 29.665C135.184 69.1757 135.184 105.745 135.184 135.41L134.927 135.155C158.442 135.155 177.718 135.283 191.339 135.283C198.149 135.283 203.418 135.283 207.016 135.41C208.815 135.41 210.229 135.41 211.128 135.41C212.028 135.283 212.413 135.283 212.413 135.283C212.413 135.283 211.899 135.283 211 135.283C210.1 135.283 208.687 135.283 206.888 135.283C203.289 135.283 198.021 135.283 191.21 135.41C177.589 135.41 158.185 135.538 134.67 135.666H134.413V135.41C134.413 105.745 134.284 69.1757 134.284 29.665V29.2814H134.67C162.554 29.2814 188.897 29.2814 212.285 29.2814H212.67V29.665C212.67 60.9922 212.542 87.4606 212.542 106.129C212.542 115.335 212.542 122.752 212.413 127.739C212.413 130.168 212.413 132.086 212.413 133.492C212.413 134.132 212.413 134.643 212.413 134.899C212.542 135.155 212.542 135.283 212.413 135.283Z" fill="#263238"/>
<path d="M182.215 50.763C182.215 51.0187 173.734 51.1466 163.325 51.1466C152.917 51.1466 144.436 51.0187 144.436 50.763C144.436 50.5073 152.917 50.3794 163.325 50.3794C173.863 50.3794 182.215 50.6351 182.215 50.763Z" fill="#263238"/>
<path d="M202.647 59.9693C202.647 60.225 189.668 60.3529 173.606 60.3529C157.543 60.3529 144.564 60.225 144.564 59.9693C144.564 59.7136 157.543 59.5857 173.606 59.5857C189.668 59.5857 202.647 59.7136 202.647 59.9693Z" fill="#263238"/>
<path d="M202.647 69.5593C202.647 69.815 189.668 69.9429 173.606 69.9429C157.543 69.9429 144.564 69.815 144.564 69.5593C144.564 69.3035 157.543 69.1757 173.606 69.1757C189.668 69.1757 202.647 69.3035 202.647 69.5593Z" fill="#263238"/>
<path d="M202.647 79.1492C202.647 79.405 189.668 79.5328 173.606 79.5328C157.543 79.5328 144.564 79.405 144.564 79.1492C144.564 78.8935 157.543 78.7656 173.606 78.7656C189.668 78.7656 202.647 78.8935 202.647 79.1492Z" fill="#263238"/>
<path d="M202.647 88.7392C202.647 88.9949 189.668 89.1228 173.606 89.1228C157.543 89.1228 144.564 88.9949 144.564 88.7392C144.564 88.4835 157.543 88.3556 173.606 88.3556C189.668 88.3556 202.647 88.4835 202.647 88.7392Z" fill="#263238"/>
<path d="M202.647 98.3293C202.647 98.585 189.668 98.7129 173.606 98.7129C157.543 98.7129 144.564 98.585 144.564 98.3293C144.564 98.0735 157.543 97.9457 173.606 97.9457C189.668 97.9457 202.647 98.0735 202.647 98.3293Z" fill="#263238"/>
<path d="M202.647 107.919C202.647 108.175 189.668 108.303 173.606 108.303C157.543 108.303 144.564 108.175 144.564 107.919C144.564 107.664 157.543 107.536 173.606 107.536C189.668 107.536 202.647 107.664 202.647 107.919Z" fill="#263238"/>
<path d="M175.79 117.509C175.79 117.765 168.851 117.893 160.113 117.893C151.503 117.893 144.436 117.765 144.436 117.509C144.436 117.253 151.375 117.126 160.113 117.126C168.851 117.126 175.79 117.253 175.79 117.509Z" fill="#263238"/>
<path d="M205.731 142.955C214.46 142.955 221.537 135.913 221.537 127.227C221.537 118.541 214.46 111.5 205.731 111.5C197.002 111.5 189.925 118.541 189.925 127.227C189.925 135.913 197.002 142.955 205.731 142.955Z" fill="#63909B"/>
<path d="M214.726 121.217C215.369 121.857 212.285 126.204 207.787 131.063C207.016 131.83 206.374 132.597 205.731 133.237L204.703 134.26L203.675 133.365C199.691 130.04 197.25 127.227 197.635 126.716C198.149 126.076 201.49 127.866 205.603 130.935L203.418 131.063C204.06 130.296 204.703 129.529 205.474 128.761C209.843 123.903 214.084 120.578 214.726 121.217Z" fill="#EBEBEB"/>
<path d="M167.695 141.037C167.566 141.037 167.309 139.63 167.309 137.84C167.309 136.05 167.438 134.643 167.695 134.643C167.952 134.643 168.08 136.05 168.08 137.84C168.08 139.63 167.952 141.037 167.695 141.037Z" fill="#263238"/>
<path d="M167.695 153.823C167.566 153.823 167.309 152.417 167.309 150.627C167.309 148.836 167.438 147.43 167.695 147.43C167.952 147.43 168.08 148.836 168.08 150.627C168.08 152.417 167.952 153.823 167.695 153.823Z" fill="#263238"/>
<path d="M167.695 166.61C167.566 166.61 167.309 165.203 167.309 163.413C167.309 161.623 167.438 160.217 167.695 160.217C167.952 160.217 168.08 161.623 168.08 163.413C168.08 165.203 167.952 166.61 167.695 166.61Z" fill="#263238"/>
<path d="M167.695 179.396C167.566 179.396 167.309 177.99 167.309 176.2C167.309 174.41 167.438 173.003 167.695 173.003C167.952 173.003 168.08 174.41 168.08 176.2C168.08 177.99 167.952 179.396 167.695 179.396Z" fill="#263238"/>
<path d="M167.695 192.183C167.566 192.183 167.309 190.777 167.309 188.986C167.309 187.196 167.438 185.79 167.695 185.79C167.952 185.79 168.08 187.196 168.08 188.986C168.08 190.777 167.952 192.183 167.695 192.183Z" fill="#263238"/>
<path d="M167.695 204.97C167.566 204.97 167.309 203.563 167.309 201.773C167.309 199.983 167.438 198.577 167.695 198.577C167.952 198.577 168.08 199.983 168.08 201.773C168.08 203.563 167.952 204.97 167.695 204.97Z" fill="#263238"/>
<path d="M167.695 217.756C167.566 217.756 167.309 216.35 167.309 214.56C167.309 212.77 167.438 211.363 167.695 211.363C167.952 211.363 168.08 212.77 168.08 214.56C168.08 216.35 167.952 217.756 167.695 217.756Z" fill="#263238"/>
<path d="M167.695 230.543C167.566 230.543 167.309 229.137 167.309 227.346C167.309 225.556 167.438 224.15 167.695 224.15C167.952 224.15 168.08 225.556 168.08 227.346C168.08 229.137 167.952 230.543 167.695 230.543Z" fill="#263238"/>
<path d="M173.991 237.192C173.991 237.32 172.578 237.576 170.779 237.576C169.365 237.576 168.209 237.448 167.823 237.32H167.695V237.192C167.695 237.064 167.823 236.936 167.823 236.936C167.823 236.936 167.952 237.064 167.952 237.192L167.823 237.064C168.337 236.936 169.494 236.809 170.779 236.809C172.449 236.809 173.991 236.936 173.991 237.192Z" fill="#263238"/>
<path d="M186.841 237.192C186.841 237.32 185.428 237.576 183.629 237.576C181.83 237.576 180.416 237.448 180.416 237.192C180.416 237.064 181.83 236.809 183.629 236.809C185.299 236.809 186.841 236.936 186.841 237.192Z" fill="#263238"/>
<path d="M199.691 237.192C199.691 237.32 198.278 237.576 196.479 237.576C194.68 237.576 193.266 237.448 193.266 237.192C193.266 237.064 194.68 236.809 196.479 236.809C198.149 236.809 199.691 236.936 199.691 237.192Z" fill="#263238"/>
<path d="M212.542 237.192C212.542 237.32 211.128 237.576 209.329 237.576C207.53 237.576 206.116 237.448 206.116 237.192C206.116 237.064 207.53 236.809 209.329 236.809C211 236.809 212.542 236.936 212.542 237.192Z" fill="#263238"/>
<path d="M225.392 237.192C225.392 237.32 223.978 237.576 222.179 237.576C220.38 237.576 218.967 237.448 218.967 237.192C218.967 237.064 220.38 236.809 222.179 236.809C223.85 236.809 225.392 236.936 225.392 237.192Z" fill="#263238"/>
<path d="M439.347 121.473C439.218 121.473 438.961 120.067 438.961 118.276C438.961 116.486 439.09 115.08 439.347 115.08C439.604 115.08 439.732 116.486 439.732 118.276C439.732 120.067 439.604 121.473 439.347 121.473Z" fill="#263238"/>
<path d="M439.347 134.26C439.218 134.26 438.961 132.853 438.961 131.063C438.961 129.273 439.09 127.866 439.347 127.866C439.604 127.866 439.732 129.273 439.732 131.063C439.732 132.853 439.604 134.26 439.347 134.26Z" fill="#263238"/>
<path d="M439.347 147.046C439.218 147.046 438.961 145.64 438.961 143.85C438.961 142.059 439.09 140.653 439.347 140.653C439.604 140.653 439.732 142.059 439.732 143.85C439.732 145.64 439.604 147.046 439.347 147.046Z" fill="#263238"/>
<path d="M439.347 159.833C439.218 159.833 438.961 158.426 438.961 156.636C438.961 154.846 439.09 153.44 439.347 153.44C439.604 153.44 439.732 154.846 439.732 156.636C439.732 158.426 439.604 159.833 439.347 159.833Z" fill="#263238"/>
<path d="M439.347 172.62C439.218 172.62 438.961 171.213 438.961 169.423C438.961 167.633 439.09 166.226 439.347 166.226C439.604 166.226 439.732 167.633 439.732 169.423C439.732 171.213 439.604 172.62 439.347 172.62Z" fill="#263238"/>
<path d="M439.347 185.406C439.218 185.406 438.961 184 438.961 182.21C438.961 180.419 439.09 179.013 439.347 179.013C439.604 179.013 439.732 180.419 439.732 182.21C439.732 184 439.604 185.406 439.347 185.406Z" fill="#263238"/>
<path d="M439.347 198.193C439.218 198.193 438.961 196.786 438.961 194.996C438.961 193.206 439.09 191.8 439.347 191.8C439.604 191.8 439.732 193.206 439.732 194.996C439.732 196.786 439.604 198.193 439.347 198.193Z" fill="#263238"/>
<path d="M439.347 210.98C439.218 210.98 438.961 209.573 438.961 207.783C438.961 205.993 439.09 204.586 439.347 204.586C439.604 204.586 439.732 205.993 439.732 207.783C439.732 209.573 439.604 210.98 439.347 210.98Z" fill="#263238"/>
<path d="M526.599 129.657C526.599 129.657 526.342 129.657 525.828 129.657C525.314 129.657 524.543 129.657 523.515 129.657C521.459 129.657 518.504 129.657 514.649 129.657C506.81 129.657 495.63 129.784 481.495 129.784C453.096 129.784 413.132 129.912 366.872 129.912H366.615L366.486 129.657C364.173 121.601 365.587 112.139 370.855 104.978C376.124 97.8178 385.248 93.2146 394.628 93.4704L394.243 93.9818C393.6 91.6802 393.215 88.995 393.343 86.3099C393.729 77.4871 398.74 68.92 406.45 65.084C414.032 61.1202 423.541 61.248 430.737 65.2119L430.095 65.4676C434.207 55.4941 442.945 48.2057 452.325 44.8811C461.835 41.4287 472.243 41.9402 480.467 46.1598C488.82 50.3794 494.602 57.5399 497.944 65.084C501.285 72.6282 501.799 80.8116 500.128 87.8442L499.871 87.4607C504.626 86.9492 509.252 87.7164 513.107 89.3786C517.09 91.0409 520.431 93.3425 523.001 96.0277C524.286 97.4342 525.314 98.8408 526.085 100.503C526.856 102.037 527.37 103.7 527.756 105.234C528.527 108.303 528.784 111.244 528.912 113.801C529.041 119.044 528.398 123.008 527.884 125.693C527.627 126.971 527.37 127.994 527.113 128.634C526.728 129.401 526.599 129.657 526.599 129.657Z" fill="#79D0E7"/>
<path d="M512.079 85.9262H507.067V56.2612C507.067 49.1007 501.285 43.3467 494.088 43.3467C486.892 43.3467 481.11 49.1007 481.11 56.2612V85.9262H476.098V56.2612C476.098 46.4155 484.194 38.4878 493.96 38.4878C503.855 38.4878 511.822 46.5434 511.822 56.2612V85.9262H512.079Z" fill="#E0E0E0"/>
<path d="M514.263 103.955H474.042C471.601 103.955 469.673 102.037 469.673 99.6079V77.1034C469.673 74.674 471.601 72.756 474.042 72.756H514.263C516.705 72.756 518.632 74.674 518.632 77.1034V99.7358C518.632 102.037 516.705 103.955 514.263 103.955Z" fill="#E0E0E0"/>
<path d="M494.217 88.3557C491.904 88.3557 490.105 86.5656 490.105 84.264C490.105 81.9624 491.904 80.1722 494.217 80.1722C496.53 80.1722 498.329 81.9624 498.329 84.264C498.329 86.5656 496.402 88.3557 494.217 88.3557Z" fill="#455A64"/>
<path d="M495.245 85.9263H493.06V94.3655H495.245V85.9263Z" fill="#455A64"/>
<path d="M795.425 76.0806C806.219 65.9792 806.861 49.1008 796.71 38.36C786.558 27.6192 769.596 26.9799 758.802 37.0813C749.55 45.6484 747.751 59.2022 753.79 69.6873L748.393 74.8019L749.678 83.7526L741.197 81.451L734.386 87.8443L735.671 96.795L727.19 94.4934L721.279 99.9916L722.05 105.49L716.91 104.083L713.441 107.28L712.927 115.591L725.391 118.66L765.998 80.9395C775.635 85.1591 787.201 83.6247 795.425 76.0806ZM791.441 43.3468C794.397 46.4156 794.14 51.2745 791.056 54.2154C787.972 57.1564 783.089 56.9006 780.133 53.8318C777.177 50.7631 777.434 45.9041 780.518 42.9632C783.603 40.0223 788.486 40.1501 791.441 43.3468Z" fill="#263238"/>
<path d="M791.441 43.3468C791.441 43.3468 790.927 42.8354 789.899 42.196C788.871 41.5567 787.201 40.9174 785.016 41.1731C782.96 41.4288 780.39 42.7075 779.233 45.2648C777.948 47.6943 778.205 51.2745 780.39 53.5761C782.575 56.0056 786.173 56.3892 788.614 55.3663C791.184 54.3433 792.726 51.9139 793.112 49.868C793.497 47.8221 792.983 46.032 792.341 45.0091C791.827 43.8583 791.313 43.3468 791.441 43.3468C791.441 43.3468 791.57 43.4747 791.827 43.7304C792.084 43.9861 792.341 44.3697 792.726 44.8812C793.369 45.9041 794.011 47.6943 793.626 49.9959C793.369 52.1696 791.698 54.7269 789 56.0056C787.586 56.6449 786.044 56.7728 784.374 56.5171C782.703 56.2613 781.161 55.3663 780.004 54.0876C778.848 52.8089 778.077 51.1467 777.948 49.6123C777.691 47.95 778.077 46.4156 778.848 45.0091C780.261 42.3239 782.96 40.9174 785.144 40.7895C787.458 40.6616 789.128 41.4288 790.156 42.0682C790.67 42.4518 791.056 42.7075 791.184 42.9632C791.313 43.0911 791.441 43.219 791.441 43.3468Z" fill="#263238"/>
<path d="M795.425 76.0806C795.425 76.0806 795.296 76.2085 795.039 76.4642C794.782 76.7199 794.397 77.1035 793.883 77.4871C792.726 78.3822 791.184 79.6608 788.743 80.8116C786.301 81.9624 783.089 82.9854 779.233 83.369C775.378 83.6247 770.752 83.1132 766.126 81.1952H766.383C755.975 90.9131 741.968 103.955 725.905 118.916L725.777 119.044H725.648C721.665 118.021 717.424 116.998 713.184 115.975H712.927V115.719C713.055 113.162 713.312 110.221 713.441 107.408V107.28L713.569 107.152C714.597 106.129 715.754 105.106 717.039 103.955L716.91 103.572H717.039C718.581 103.955 720.38 104.467 722.179 104.978L721.793 105.362C721.536 103.7 721.279 101.782 721.022 99.8637V99.7359L721.151 99.608C722.95 97.9457 725.006 96.0277 727.062 94.1097L727.19 93.9819H727.319C730.017 94.7491 732.844 95.5163 735.8 96.2835L735.414 96.6671C735.029 93.854 734.515 90.7852 734.129 87.7164V87.5886L734.258 87.4607C734.772 86.9492 735.414 86.3099 736.057 85.7984C737.727 84.264 739.398 82.7296 741.068 81.1952L741.197 81.0674H741.326C744.153 81.8346 746.98 82.6018 749.807 83.369L749.421 83.7526C749.036 80.6838 748.522 77.7428 748.136 74.8019V74.6741L748.265 74.5462C750.064 72.8839 751.863 71.0938 753.662 69.4315V69.8151C751.606 65.9791 750.321 61.8874 750.192 57.6678C750.064 55.622 750.192 53.4482 750.578 51.5302C750.963 49.4844 751.606 47.5664 752.377 45.7762C755.589 38.36 762.014 32.9896 769.082 30.9437C776.021 28.77 783.474 29.6651 789.128 32.4781C794.911 35.2912 799.023 40.0223 801.464 44.7533C803.777 49.6122 804.548 54.599 804.163 58.6908C803.777 62.9103 802.492 66.3627 801.207 68.9201C801.079 69.3037 800.822 69.5594 800.693 69.8151C800.565 70.0709 800.308 70.3266 800.179 70.7102C799.794 71.2217 799.537 71.7331 799.151 72.2446C798.38 73.1397 797.866 73.9069 797.352 74.4183C796.838 74.9298 796.453 75.3134 796.067 75.697C795.553 75.9527 795.425 76.0806 795.425 76.0806C795.425 76.0806 795.553 75.9527 795.81 75.697C796.067 75.4413 796.453 74.9298 796.967 74.4183C797.481 73.9069 797.995 73.1397 798.766 72.2446C799.151 71.861 799.408 71.2217 799.794 70.7102C799.922 70.4545 800.179 70.1987 800.308 69.8151C800.436 69.5594 800.565 69.1758 800.822 68.9201C802.107 66.3627 803.392 62.9103 803.649 58.6908C804.034 54.599 803.263 49.6122 800.95 44.8812C798.509 40.1501 794.525 35.5469 788.743 32.8617C783.089 30.0487 775.892 29.2815 769.082 31.4552C762.271 33.6289 755.975 38.7436 752.762 46.032C751.991 47.8221 751.349 49.7401 751.092 51.6581C750.706 53.5761 750.578 55.622 750.706 57.6678C750.835 61.7595 752.12 65.8513 754.176 69.5594L754.304 69.8151L754.176 69.943C752.377 71.6053 750.578 73.2675 748.779 75.0577L748.907 74.8019C749.293 77.7428 749.807 80.8116 750.192 83.7526L750.321 84.264L749.807 84.1362C746.98 83.369 744.153 82.6018 741.326 81.8346L741.583 81.7067C739.912 83.2411 738.241 84.7755 736.571 86.3099C735.928 86.8214 735.286 87.4607 734.772 87.9722L734.9 87.7164C735.286 90.7852 735.8 93.854 736.185 96.6671L736.314 97.1785L735.8 97.0507C732.844 96.2835 730.017 95.3884 727.319 94.7491L727.576 94.6212C725.52 96.5392 723.592 98.3293 721.665 100.119L721.793 99.8637C722.05 101.782 722.307 103.7 722.564 105.362L722.693 105.873L722.179 105.746C720.38 105.234 718.581 104.723 717.039 104.339L717.296 104.211C716.139 105.362 714.983 106.385 713.826 107.408L713.955 107.152C713.826 110.093 713.569 112.906 713.441 115.463L713.184 115.08C717.553 116.231 721.793 117.254 725.648 118.276L725.391 118.404C741.582 103.444 755.589 90.5295 765.998 80.8116L766.126 80.6838H766.255C770.752 82.7296 775.25 83.2411 779.105 82.9854C782.96 82.7296 786.173 81.7067 788.614 80.5559C791.056 79.4051 792.726 78.2543 793.883 77.3593C794.397 76.9757 794.782 76.5921 795.039 76.3363C795.168 76.2085 795.425 76.0806 795.425 76.0806Z" fill="#263238"/>
<path d="M794.525 73.0118C805.319 62.9103 805.962 46.0319 795.81 35.2912C785.659 24.5504 768.696 23.9111 757.902 34.0125C748.65 42.5795 746.851 56.1334 752.891 66.6184L747.493 71.7331L748.779 80.6837L740.297 78.3821L733.487 84.7755L734.772 93.7261L726.291 91.4245L720.38 96.9228L721.151 102.421L716.011 101.014L712.541 104.211L712.027 112.522L724.492 115.591L765.098 77.8707C774.736 82.0903 786.301 80.5559 794.525 73.0118ZM790.542 40.278C793.497 43.3467 793.24 48.2057 790.156 51.1466C787.072 54.0875 782.189 53.8318 779.233 50.763C776.278 47.6942 776.535 42.8353 779.619 39.8944C782.703 36.9534 787.586 37.2092 790.542 40.278Z" fill="#E0E0E0"/>
<path d="M790.542 40.278C790.542 40.278 790.028 39.7665 789 39.1272C787.972 38.4878 786.301 37.8485 784.116 38.1042C782.06 38.36 779.49 39.6386 778.334 42.196C777.049 44.6254 777.306 48.2057 779.49 50.5073C781.675 52.9367 785.273 53.3203 787.715 52.2974C790.285 51.2745 791.827 48.845 792.212 46.7992C792.598 44.7533 792.084 42.9632 791.441 41.9402C790.927 40.7894 790.413 40.278 790.542 40.278C790.542 40.278 790.67 40.4058 790.927 40.6616C791.184 40.9173 791.441 41.3009 791.827 41.8124C792.469 42.8353 793.112 44.6254 792.726 46.927C792.469 49.1008 790.799 51.6581 788.1 52.9367C786.687 53.5761 785.144 53.7039 783.474 53.4482C781.803 53.1925 780.261 52.2974 779.105 51.0187C777.948 49.7401 777.177 48.0778 777.049 46.5434C776.792 44.8812 777.177 43.3468 777.948 41.9402C779.362 39.255 782.061 37.8485 784.245 37.7206C786.558 37.5928 788.229 38.36 789.257 38.9993C789.771 39.3829 790.156 39.6386 790.285 39.8944C790.413 40.1501 790.542 40.278 790.542 40.278Z" fill="#263238"/>
<path d="M794.525 73.0117C794.525 73.0117 794.397 73.1396 794.14 73.3953C793.883 73.6511 793.497 74.0347 792.983 74.4183C791.827 75.3133 790.285 76.592 787.843 77.7428C785.402 78.8936 782.189 79.9165 778.334 80.3001C774.479 80.5559 769.853 80.0444 765.227 78.1264H765.484C755.075 87.8442 741.068 100.887 725.006 115.847L724.877 115.975H724.749C720.765 114.952 716.525 113.929 712.284 112.906H712.027V112.65C712.156 110.093 712.413 107.152 712.541 104.339V104.211L712.67 104.083C713.698 103.06 714.854 102.037 716.139 100.887L716.268 100.759H716.396C717.938 101.142 719.737 101.654 721.536 102.165L721.151 102.549C720.894 100.887 720.637 98.9686 720.38 97.0506V96.9228L720.508 96.7949C722.307 95.1326 724.363 93.2146 726.419 91.2966L726.548 91.1688H726.676C729.375 91.936 732.202 92.7032 735.157 93.4704L734.772 93.854C734.386 91.0409 733.872 87.9721 733.487 84.9033V84.7755L733.615 84.6476C734.129 84.1361 734.772 83.4968 735.414 82.9853C737.085 81.4509 738.755 79.9165 740.426 78.3821L740.555 78.2543H740.683C743.51 79.0215 746.337 79.7887 749.164 80.5559L748.779 80.9395C748.393 77.8707 747.879 74.9297 747.494 71.9888V71.8609L747.622 71.7331C749.421 70.0708 751.22 68.2807 753.019 66.6184V67.002C750.963 63.166 749.678 59.0743 749.55 54.8547C749.421 52.8089 749.55 50.6351 749.935 48.7171C750.321 46.6713 750.963 44.7533 751.734 42.9631C754.947 35.5469 761.372 30.1765 768.439 28.1306C775.378 25.9569 782.832 26.852 788.486 29.665C794.268 32.4781 798.38 37.2091 800.822 41.9402C803.135 46.7991 803.906 51.7859 803.52 55.8776C803.135 60.0972 801.85 63.5496 800.565 66.107C800.436 66.4906 800.179 66.7463 800.051 67.002C799.922 67.2578 799.665 67.5135 799.537 67.8971C799.151 68.4085 798.894 68.92 798.509 69.4315C797.738 70.3265 797.224 71.0937 796.71 71.6052C796.196 72.1167 795.81 72.5003 795.425 72.8839C794.654 72.8839 794.525 73.0117 794.525 73.0117C794.525 73.0117 794.654 72.8839 794.911 72.6281C795.168 72.3724 795.553 71.8609 796.067 71.3495C796.581 70.838 797.095 70.0708 797.866 69.1757C798.252 68.7921 798.509 68.1528 798.894 67.6414C799.023 67.3856 799.28 67.1299 799.408 66.7463C799.537 66.4906 799.665 66.107 799.922 65.8512C801.207 63.2939 802.492 59.8415 802.749 55.6219C803.135 51.5302 802.364 46.5434 800.051 41.8123C797.609 37.0813 793.626 32.4781 787.843 29.7929C782.189 26.9798 774.993 26.2126 768.182 28.3864C761.372 30.5601 755.075 35.6748 751.863 42.9631C751.092 44.7533 750.449 46.6713 750.192 48.5893C749.807 50.5073 749.678 52.5531 749.807 54.599C749.935 58.6907 751.22 62.7824 753.276 66.4906L753.405 66.7463L753.276 66.8742C751.477 68.5364 749.678 70.1987 747.879 71.9888L748.008 71.7331C748.393 74.674 748.907 77.7428 749.293 80.6837L749.421 81.1952L748.907 81.0673C746.08 80.3001 743.253 79.5329 740.426 78.7657L740.683 78.6379C739.012 80.1723 737.342 81.7067 735.671 83.241C735.029 83.7525 734.386 84.3919 733.872 84.9033L734.001 84.6476C734.386 87.7164 734.9 90.7852 735.286 93.5982L735.414 94.1097L734.9 93.9818C731.945 93.2146 729.118 92.3196 726.419 91.6802L726.676 91.5524C724.62 93.4704 722.693 95.2605 720.765 97.0506L720.894 96.7949C721.151 98.7129 721.408 100.631 721.665 102.293L721.793 102.805L721.279 102.677C719.48 102.165 717.681 101.654 716.139 101.27L716.396 101.142C715.24 102.293 714.083 103.316 712.927 104.339L713.055 104.083C712.927 107.024 712.67 109.837 712.541 112.395L712.284 112.011C716.653 113.162 720.894 114.185 724.749 115.208L724.492 115.336C740.683 100.375 754.69 87.4606 765.098 77.7428L765.227 77.6149H765.355C769.853 79.6608 774.35 80.1723 778.205 79.9165C782.061 79.6608 785.273 78.6379 787.715 77.4871C790.156 76.3363 791.827 75.1855 792.983 74.2904C793.497 73.9068 793.883 73.5232 794.14 73.2675C794.268 73.1396 794.525 73.0117 794.525 73.0117Z" fill="#263238"/>
<path d="M791.955 70.966C791.827 70.8381 793.497 69.5594 795.553 66.4906C796.581 64.9562 797.609 62.9104 798.252 60.353C799.023 57.7957 799.408 54.8548 799.023 51.5303C798.637 48.2057 797.609 44.7533 795.553 41.4288C793.369 38.2322 790.413 35.1634 786.43 33.2454C784.502 32.2224 782.318 31.4552 780.133 31.0716C778.976 30.8159 777.82 30.8159 776.663 30.688C775.507 30.688 774.35 30.688 773.194 30.8159C768.439 31.3274 763.813 33.5011 760.087 36.8256C756.489 40.278 753.919 44.7533 753.148 49.4844C752.891 50.6352 752.891 51.786 752.762 52.9368C752.762 54.0876 752.762 55.2384 752.891 56.3892C753.148 58.6908 753.662 60.8645 754.561 62.7825C756.232 66.8742 759.059 70.0709 762.143 72.3725C765.227 74.6741 768.825 75.9527 772.037 76.5921C775.25 77.1035 778.334 76.9757 780.904 76.4642C783.474 75.9527 785.659 75.0577 787.201 74.1626C790.542 72.3725 791.955 70.8381 791.955 70.966C791.955 70.966 791.827 71.0938 791.698 71.2217C791.441 71.4774 791.184 71.6053 790.799 71.9889C790.413 72.3725 790.028 72.7561 789.385 73.1397C788.743 73.5233 788.1 74.0347 787.329 74.4183C785.659 75.4413 783.603 76.2085 780.904 76.8478C778.334 77.4871 775.121 77.615 771.78 77.1035C768.439 76.5921 764.841 75.3134 761.629 72.8839C758.416 70.4545 755.461 67.2578 753.79 63.0382C752.891 60.9924 752.248 58.6908 751.991 56.3892C751.863 55.2384 751.863 54.0876 751.863 52.8089C751.991 51.6581 751.991 50.3795 752.248 49.2287C753.148 44.3697 755.589 39.7665 759.444 36.1863C763.299 32.7339 768.054 30.4323 772.937 29.9208C774.093 29.793 775.378 29.793 776.535 29.793C777.691 29.9208 778.976 29.9208 780.133 30.1766C782.446 30.5602 784.631 31.3274 786.687 32.3503C790.67 34.3962 793.754 37.465 795.939 40.7895C798.123 44.114 799.151 47.8221 799.537 51.1467C799.922 54.4712 799.408 57.54 798.637 60.0973C797.866 62.6546 796.838 64.7005 795.682 66.2349C795.168 67.0021 794.654 67.6414 794.14 68.2808C793.754 68.7922 793.24 69.3037 792.855 69.6873C792.469 70.0709 792.212 70.3266 792.084 70.4545C792.084 70.8381 792.084 70.966 791.955 70.966Z" fill="#263238"/>
<path d="M790.927 52.0416C790.927 52.0416 791.441 51.5301 792.212 50.2515C792.983 49.1007 793.754 47.0548 793.497 44.6254C793.369 43.3467 792.983 42.068 792.212 40.7894C791.441 39.6386 790.285 38.4878 788.743 37.7206C787.329 36.9534 785.53 36.5698 783.731 36.8255C781.932 36.9534 780.261 37.8484 778.848 39.1271C777.434 40.4058 776.535 42.068 776.278 43.8582C775.892 45.6483 776.149 47.3106 776.792 48.8449C777.434 50.3793 778.462 51.5301 779.619 52.4252C780.775 53.3203 782.061 53.8317 783.346 54.0875C785.787 54.4711 787.843 53.8317 789.128 53.1924C790.285 52.5531 790.927 52.0416 790.927 52.0416C790.927 52.0416 790.799 52.1695 790.542 52.4252C790.285 52.6809 789.771 53.0645 789.257 53.4481C787.972 54.2153 785.916 54.9825 783.346 54.5989C782.061 54.3432 780.647 53.9596 779.362 52.9367C778.077 52.0416 776.92 50.7629 776.278 49.1007C775.635 47.5663 775.25 45.6483 775.635 43.7303C776.021 41.8123 776.92 40.0222 778.462 38.6156C780.005 37.2091 781.803 36.4419 783.731 36.1862C785.659 35.9304 787.458 36.314 789 37.2091C790.542 37.9763 791.827 39.255 792.598 40.5336C793.369 41.8123 793.883 43.2188 794.011 44.6254C794.268 47.3106 793.369 49.3564 792.469 50.5072C792.084 51.1465 791.698 51.5301 791.441 51.7859C791.056 51.9137 790.927 52.0416 790.927 52.0416Z" fill="#263238"/>
<path d="M721.408 114.057C721.279 113.929 730.403 105.234 741.84 94.6212C753.276 84.0083 762.528 75.5691 762.657 75.697C762.785 75.8249 753.662 84.5198 742.225 95.1327C730.788 105.746 721.536 114.185 721.408 114.057Z" fill="#263238"/>
<path d="M681.958 229.52C681.958 229.648 680.544 229.904 678.745 229.904C676.946 229.904 675.533 229.776 675.533 229.52C675.533 229.392 676.946 229.137 678.745 229.137C680.416 229.264 681.958 229.392 681.958 229.52Z" fill="#263238"/>
<path d="M694.808 229.52C694.808 229.648 693.394 229.904 691.595 229.904C689.796 229.904 688.383 229.776 688.383 229.52C688.383 229.392 689.796 229.137 691.595 229.137C693.266 229.264 694.808 229.392 694.808 229.52Z" fill="#263238"/>
<path d="M707.658 229.52C707.658 229.648 706.245 229.904 704.446 229.904C702.646 229.904 701.233 229.776 701.233 229.52C701.233 229.392 702.646 229.137 704.446 229.137C706.116 229.264 707.658 229.392 707.658 229.52Z" fill="#263238"/>
<path d="M720.508 229.52C720.508 229.648 719.095 229.904 717.296 229.904C715.497 229.904 714.083 229.776 714.083 229.52C714.083 229.392 715.497 229.137 717.296 229.137C718.966 229.264 720.508 229.392 720.508 229.52Z" fill="#263238"/>
<path d="M733.358 229.52C733.358 229.648 731.945 229.904 730.146 229.904C728.347 229.904 726.933 229.776 726.933 229.52C726.933 229.392 728.347 229.137 730.146 229.137C731.816 229.264 733.358 229.392 733.358 229.52Z" fill="#263238"/>
<path d="M746.209 229.52C746.209 229.648 744.795 229.904 742.996 229.904C741.197 229.904 739.783 229.776 739.783 229.52C739.783 229.392 741.197 229.137 742.996 229.137C744.667 229.264 746.209 229.392 746.209 229.52Z" fill="#263238"/>
<path d="M757.003 227.602C757.131 227.602 757.26 228.369 757.26 229.52V229.776H757.003C756.617 229.776 756.232 229.776 755.718 229.776C753.919 229.776 752.505 229.648 752.505 229.392C752.505 229.265 753.919 229.009 755.718 229.009C756.103 229.009 756.617 229.009 757.003 229.009L756.746 229.265C756.746 228.497 756.874 227.602 757.003 227.602Z" fill="#263238"/>
<path d="M757.003 214.816C757.131 214.816 757.388 216.222 757.388 218.012C757.388 219.802 757.26 221.209 757.003 221.209C756.746 221.209 756.617 219.802 756.617 218.012C756.746 216.35 756.874 214.816 757.003 214.816Z" fill="#263238"/>
<path d="M757.003 202.029C757.131 202.029 757.388 203.435 757.388 205.226C757.388 207.016 757.26 208.422 757.003 208.422C756.746 208.422 756.617 207.016 756.617 205.226C756.746 203.563 756.874 202.029 757.003 202.029Z" fill="#263238"/>
<path d="M757.003 189.242C757.131 189.242 757.388 190.649 757.388 192.439C757.388 194.229 757.26 195.636 757.003 195.636C756.746 195.636 756.617 194.229 756.617 192.439C756.746 190.777 756.874 189.242 757.003 189.242Z" fill="#263238"/>
<path d="M757.003 176.456C757.131 176.456 757.388 177.862 757.388 179.652C757.388 181.442 757.26 182.849 757.003 182.849C756.746 182.849 756.617 181.442 756.617 179.652C756.746 177.99 756.874 176.456 757.003 176.456Z" fill="#263238"/>
<path d="M757.003 163.669C757.131 163.669 757.388 165.076 757.388 166.866C757.388 168.656 757.26 170.062 757.003 170.062C756.746 170.062 756.617 168.656 756.617 166.866C756.746 165.203 756.874 163.669 757.003 163.669Z" fill="#263238"/>
<path d="M757.003 150.882C757.131 150.882 757.388 152.289 757.388 154.079C757.388 155.869 757.26 157.276 757.003 157.276C756.746 157.276 756.617 155.869 756.617 154.079C756.746 152.417 756.874 150.882 757.003 150.882Z" fill="#263238"/>
<path d="M757.003 138.096C757.131 138.096 757.388 139.502 757.388 141.292C757.388 143.082 757.26 144.489 757.003 144.489C756.746 144.489 756.617 143.082 756.617 141.292C756.746 139.63 756.874 138.096 757.003 138.096Z" fill="#263238"/>
<path d="M757.003 125.309C757.131 125.309 757.388 126.716 757.388 128.506C757.388 130.296 757.26 131.702 757.003 131.702C756.746 131.702 756.617 130.296 756.617 128.506C756.746 126.843 756.874 125.309 757.003 125.309Z" fill="#263238"/>
<path d="M757.003 112.522C757.131 112.522 757.388 113.929 757.388 115.719C757.388 117.509 757.26 118.916 757.003 118.916C756.746 118.916 756.617 117.509 756.617 115.719C756.746 114.057 756.874 112.522 757.003 112.522Z" fill="#263238"/>
<path d="M757.003 99.7358C757.131 99.7358 757.388 101.142 757.388 102.932C757.388 104.723 757.26 106.129 757.003 106.129C756.746 106.129 756.617 104.723 756.617 102.932C756.746 101.27 756.874 99.7358 757.003 99.7358Z" fill="#263238"/>
<path d="M660.755 357.003C660.755 357.131 659.341 357.387 657.542 357.387C655.743 357.387 654.33 357.259 654.33 357.003C654.33 356.747 655.743 356.619 657.542 356.619C659.213 356.747 660.755 356.875 660.755 357.003Z" fill="#263238"/>
<path d="M673.605 357.003C673.605 357.131 672.192 357.387 670.393 357.387C668.594 357.387 667.18 357.259 667.18 357.003C667.18 356.747 668.594 356.619 670.393 356.619C672.063 356.747 673.605 356.875 673.605 357.003Z" fill="#263238"/>
<path d="M686.455 357.003C686.455 357.131 685.042 357.387 683.243 357.387C681.444 357.387 680.03 357.259 680.03 357.003C680.03 356.747 681.444 356.619 683.243 356.619C684.913 356.747 686.455 356.875 686.455 357.003Z" fill="#263238"/>
<path d="M699.305 357.003C699.305 357.131 697.892 357.387 696.093 357.387C694.294 357.387 692.88 357.259 692.88 357.003C692.88 356.747 694.294 356.619 696.093 356.619C697.763 356.747 699.305 356.875 699.305 357.003Z" fill="#263238"/>
<path d="M712.156 357.003C712.156 357.131 710.742 357.387 708.943 357.387C707.144 357.387 705.731 357.259 705.731 357.003C705.731 356.747 707.144 356.619 708.943 356.619C710.614 356.747 712.156 356.875 712.156 357.003Z" fill="#263238"/>
<path d="M725.006 357.003C725.006 357.131 723.592 357.387 721.793 357.387C719.994 357.387 718.581 357.259 718.581 357.003C718.581 356.747 719.994 356.619 721.793 356.619C723.464 356.747 725.006 356.875 725.006 357.003Z" fill="#263238"/>
<path d="M737.856 357.003C737.856 357.131 736.442 357.387 734.643 357.387C732.844 357.387 731.431 357.259 731.431 357.003C731.431 356.747 732.844 356.619 734.643 356.619C736.314 356.747 737.856 356.875 737.856 357.003Z" fill="#263238"/>
<path d="M750.706 357.003C750.706 357.131 749.293 357.387 747.494 357.387C745.695 357.387 744.281 357.259 744.281 357.003C744.281 356.747 745.695 356.619 747.494 356.619C749.164 356.747 750.706 356.875 750.706 357.003Z" fill="#263238"/>
<path d="M763.556 357.003C763.556 357.131 762.143 357.387 760.344 357.387C758.545 357.387 757.131 357.259 757.131 357.003C757.131 356.747 758.545 356.619 760.344 356.619C762.014 356.747 763.556 356.875 763.556 357.003Z" fill="#263238"/>
<path d="M776.406 357.003C776.406 357.131 774.993 357.387 773.194 357.387C771.395 357.387 769.981 357.259 769.981 357.003C769.981 356.747 771.395 356.619 773.194 356.619C774.864 356.747 776.406 356.875 776.406 357.003Z" fill="#263238"/>
<path d="M787.971 355.852C788.1 355.852 788.228 356.364 788.228 357.003V357.259H787.971C787.457 357.259 786.686 357.387 785.915 357.387C784.116 357.387 782.703 357.259 782.703 357.003C782.703 356.747 784.116 356.619 785.915 356.619C786.686 356.619 787.329 356.619 787.971 356.747L787.714 357.003C787.843 356.236 787.971 355.852 787.971 355.852Z" fill="#263238"/>
<path d="M788.1 343.066C788.229 343.066 788.357 344.472 788.357 346.262C788.357 348.052 788.228 349.459 787.971 349.459C787.843 349.459 787.714 348.052 787.714 346.262C787.843 344.472 787.972 343.066 788.1 343.066Z" fill="#263238"/>
<path d="M788.229 330.279C788.357 330.279 788.486 331.685 788.486 333.476C788.486 335.266 788.357 336.672 788.1 336.672C787.972 336.672 787.843 335.266 787.843 333.476C787.972 331.685 788.1 330.279 788.229 330.279Z" fill="#263238"/>
<path d="M788.357 317.492C788.485 317.492 788.614 318.899 788.614 320.689C788.614 322.479 788.486 323.886 788.229 323.886C788.1 323.886 787.971 322.479 787.971 320.689C788.1 318.899 788.228 317.492 788.357 317.492Z" fill="#263238"/>
<path d="M745.823 277.342L748.136 320.561C748.265 322.095 749.55 323.246 751.092 323.374L829.221 323.886C830.891 323.886 832.176 322.607 832.176 320.945L832.433 287.316C832.433 285.653 831.148 284.375 829.478 284.375H781.418C780.647 284.375 779.876 284.119 779.362 283.48L771.009 275.168C770.495 274.657 769.724 274.273 768.953 274.273L748.65 274.146C747.108 274.273 745.823 275.68 745.823 277.342Z" fill="#63909B"/>
<path d="M832.512 279.451L747.187 278.829L746.814 329.592L832.139 330.214L832.512 279.451Z" fill="#F5F5F5"/>
<path d="M740.298 283.224L746.466 336.289C746.594 337.184 747.365 337.951 748.265 337.951L831.534 338.59C832.562 338.59 833.333 337.823 833.461 336.928L838.087 283.991C838.216 282.84 837.316 281.945 836.16 281.945L742.225 281.306C741.069 281.178 740.169 282.201 740.298 283.224Z" fill="#63909B"/>
<path d="M670.65 508.525H240.555C230.275 508.525 221.794 500.213 221.794 489.856V219.547C221.794 209.317 230.146 200.878 240.555 200.878H670.65C680.93 200.878 689.411 209.189 689.411 219.547V489.984C689.282 500.213 680.93 508.525 670.65 508.525Z" fill="#386A72"/>
<path d="M685.941 512.744H225.135C212.542 512.744 202.261 502.515 202.261 489.984V485.765H708.815V489.984C708.815 502.515 698.534 512.744 685.941 512.744Z" fill="#386A72"/>
<path d="M675.533 213.153H234.387V472.978H675.533V213.153Z" fill="#455A64"/>
<path d="M409.534 485.765L415.703 495.738H504.24L510.023 485.765H409.534Z" fill="#455A64"/>
<path d="M663.068 472.083H247.622C245.309 472.083 243.382 470.165 243.382 467.863V226.068C243.382 223.766 245.309 221.848 247.622 221.848H663.068C665.381 221.848 667.309 223.766 667.309 226.068V467.863C667.309 470.165 665.381 472.083 663.068 472.083Z" fill="#EBEBEB"/>
<path d="M667.18 240.261H243.382V472.083H667.18V240.261Z" fill="#FAFAFA"/>
<path d="M278.206 231.566C278.206 233.484 276.664 234.891 274.865 234.891C272.937 234.891 271.524 233.356 271.524 231.566C271.524 229.776 273.066 228.242 274.865 228.242C276.664 228.242 278.206 229.776 278.206 231.566Z" fill="#263238"/>
<path d="M257.646 231.566C257.646 233.484 256.104 234.891 254.305 234.891C252.377 234.891 250.964 233.356 250.964 231.566C250.964 229.776 252.506 228.242 254.305 228.242C256.232 228.242 257.646 229.776 257.646 231.566Z" fill="#263238"/>
<path d="M267.54 231.566C267.54 233.484 265.998 234.891 264.199 234.891C262.272 234.891 260.858 233.356 260.858 231.566C260.858 229.776 262.4 228.242 264.199 228.242C265.998 228.242 267.54 229.776 267.54 231.566Z" fill="#263238"/>
<path d="M685.299 485.764C685.299 485.892 581.47 486.02 453.61 486.02C325.623 486.02 221.794 485.892 221.794 485.764C221.794 485.637 325.494 485.509 453.61 485.509C581.598 485.509 685.299 485.637 685.299 485.764Z" fill="#455A64"/>
<path d="M369.57 357.003H272.809V363.396H369.57V357.003Z" fill="#E0E0E0"/>
<path d="M494.474 267.624H397.712V274.018H494.474V267.624Z" fill="#E0E0E0"/>
<path d="M638.267 291.663C638.267 291.791 584.425 291.919 517.99 291.919C451.554 291.919 397.712 291.791 397.712 291.663C397.712 291.535 451.554 291.408 517.99 291.408C584.425 291.28 638.267 291.408 638.267 291.663Z" fill="#E0E0E0"/>
<path d="M638.267 305.729C638.267 305.856 584.425 305.984 517.99 305.984C451.554 305.984 397.712 305.856 397.712 305.729C397.712 305.601 451.554 305.473 517.99 305.473C584.425 305.345 638.267 305.473 638.267 305.729Z" fill="#E0E0E0"/>
<path d="M638.267 319.794C638.267 319.922 584.425 320.05 517.99 320.05C451.554 320.05 397.712 319.922 397.712 319.794C397.712 319.666 451.554 319.538 517.99 319.538C584.425 319.41 638.267 319.538 638.267 319.794Z" fill="#E0E0E0"/>
<path d="M638.267 333.859C638.267 333.987 584.425 334.115 517.99 334.115C451.554 334.115 397.712 333.987 397.712 333.859C397.712 333.731 451.554 333.603 517.99 333.603C584.425 333.476 638.267 333.603 638.267 333.859Z" fill="#E0E0E0"/>
<path d="M638.267 347.797C638.267 347.925 584.425 348.052 517.99 348.052C451.554 348.052 397.712 347.925 397.712 347.797C397.712 347.669 451.554 347.541 517.99 347.541C584.425 347.541 638.267 347.669 638.267 347.797Z" fill="#E0E0E0"/>
<path d="M491.647 361.862C491.647 361.99 470.573 362.118 444.744 362.118C418.787 362.118 397.841 361.99 397.841 361.862C397.841 361.734 418.915 361.606 444.744 361.606C470.573 361.606 491.647 361.734 491.647 361.862Z" fill="#E0E0E0"/>
<path d="M636.597 389.225C636.597 389.353 601.259 389.481 557.568 389.481C513.878 389.481 478.54 389.353 478.54 389.225C478.54 389.097 513.878 388.97 557.568 388.97C601.13 388.842 636.597 389.097 636.597 389.225Z" fill="#E0E0E0"/>
<path d="M636.597 404.186C636.597 404.314 601.259 404.441 557.568 404.441C513.878 404.441 478.54 404.314 478.54 404.186C478.54 404.058 513.878 403.93 557.568 403.93C601.13 403.802 636.597 403.93 636.597 404.186Z" fill="#E0E0E0"/>
<path d="M636.597 419.018C636.597 419.146 601.259 419.274 557.568 419.274C513.878 419.274 478.54 419.146 478.54 419.018C478.54 418.89 513.878 418.762 557.568 418.762C601.13 418.762 636.597 418.89 636.597 419.018Z" fill="#E0E0E0"/>
<path d="M636.597 433.979C636.597 434.106 601.259 434.234 557.568 434.234C513.878 434.234 478.54 434.106 478.54 433.979C478.54 433.851 513.878 433.723 557.568 433.723C601.13 433.723 636.597 433.851 636.597 433.979Z" fill="#E0E0E0"/>
<path d="M369.827 387.819C369.827 387.947 348.753 388.075 322.667 388.075C296.582 388.075 275.507 387.947 275.507 387.819C275.507 387.691 296.582 387.563 322.667 387.563C348.625 387.435 369.827 387.563 369.827 387.819Z" fill="#E0E0E0"/>
<path d="M369.827 399.455C369.827 399.582 348.753 399.71 322.667 399.71C296.582 399.71 275.507 399.582 275.507 399.455C275.507 399.327 296.582 399.199 322.667 399.199C348.625 399.199 369.827 399.327 369.827 399.455Z" fill="#E0E0E0"/>
<path d="M369.827 411.218C369.827 411.346 348.753 411.474 322.667 411.474C296.582 411.474 275.507 411.346 275.507 411.218C275.507 411.091 296.582 410.963 322.667 410.963C348.625 410.963 369.827 411.091 369.827 411.218Z" fill="#E0E0E0"/>
<path d="M369.827 422.982C369.827 423.11 348.753 423.238 322.667 423.238C296.582 423.238 275.507 423.11 275.507 422.982C275.507 422.854 296.582 422.726 322.667 422.726C348.625 422.598 369.827 422.726 369.827 422.982Z" fill="#E0E0E0"/>
<path d="M369.827 434.618C369.827 434.746 348.753 434.874 322.667 434.874C296.582 434.874 275.507 434.746 275.507 434.618C275.507 434.49 296.582 434.362 322.667 434.362C348.625 434.362 369.827 434.49 369.827 434.618Z" fill="#E0E0E0"/>
<path d="M466.332 382.065H397.712V448.172H466.332V382.065Z" fill="#F5F5F5"/>
<path d="M402.981 442.546L421.999 408.533L437.548 430.27L446.928 418.635L460.935 442.546H402.981Z" fill="#EBEBEB"/>
<path d="M444.101 401.884C444.101 404.569 441.917 406.743 439.218 406.743C436.52 406.743 434.335 404.569 434.335 401.884C434.335 399.199 436.52 397.025 439.218 397.025C441.917 397.025 444.101 399.199 444.101 401.884Z" fill="#EBEBEB"/>
<path d="M460.935 442.673C460.935 442.673 460.935 442.546 460.935 442.418C460.935 442.162 460.935 441.906 460.935 441.651C460.935 441.011 460.935 439.988 460.935 438.71C460.935 436.152 460.935 432.316 460.807 427.457C460.807 417.867 460.678 404.058 460.678 387.563L460.935 387.819C444.101 387.819 424.184 387.819 402.981 387.819C402.852 387.947 403.623 387.179 403.238 387.563V387.691V387.947V388.458V389.353V391.271C403.238 392.55 403.238 393.701 403.238 394.979C403.238 397.409 403.238 399.966 403.238 402.396C403.238 407.254 403.238 411.986 403.238 416.589C403.238 425.795 403.238 434.618 403.238 442.673L402.981 442.418C420.329 442.418 434.721 442.546 444.872 442.546C449.884 442.546 453.996 442.546 456.695 442.673C458.108 442.673 459.136 442.673 459.779 442.673C460.164 442.673 460.421 442.673 460.55 442.673C460.935 442.673 460.935 442.673 460.935 442.673C460.935 442.673 460.807 442.673 460.678 442.673C460.421 442.673 460.164 442.673 459.907 442.673C459.136 442.673 458.108 442.673 456.823 442.673C454.124 442.673 450.141 442.673 445.001 442.801C434.849 442.801 420.329 442.929 402.852 442.929H402.595V442.673C402.595 434.618 402.595 425.923 402.595 416.589C402.595 411.986 402.595 407.254 402.595 402.396C402.595 399.966 402.595 397.537 402.595 394.979C402.595 393.701 402.595 392.55 402.595 391.271V389.353V388.458V387.947V387.691V387.563C402.338 387.819 402.981 387.179 402.981 387.179C424.312 387.179 444.23 387.179 460.935 387.179H461.192V387.435C461.192 404.058 461.064 417.867 461.064 427.457C461.064 432.188 461.064 436.024 460.935 438.582C460.935 439.86 460.935 440.755 460.935 441.523C460.935 441.778 460.935 442.034 460.935 442.29C461.064 442.546 460.935 442.673 460.935 442.673Z" fill="#EBEBEB"/>
<path d="M367.643 256.628H274.608V346.262H367.643V256.628Z" fill="#F5F5F5"/>
<path d="M281.804 338.59L307.633 292.431L328.707 321.968L341.429 306.24L360.447 338.59H281.804Z" fill="#E0E0E0"/>
<path d="M337.574 283.48C337.574 287.188 334.618 290.129 330.892 290.129C327.165 290.129 324.209 287.188 324.209 283.48C324.209 279.772 327.165 276.831 330.892 276.831C334.618 276.831 337.574 279.772 337.574 283.48Z" fill="#E0E0E0"/>
<path d="M360.447 338.846C360.447 338.846 360.447 338.718 360.447 338.462C360.447 338.207 360.447 337.823 360.447 337.439C360.447 336.544 360.447 335.138 360.447 333.348C360.447 329.768 360.447 324.653 360.318 318.132C360.318 305.089 360.19 286.421 360.061 264.044L360.447 264.428C337.702 264.428 310.717 264.428 281.804 264.428C281.675 264.556 282.575 263.661 282.189 264.044V264.172V264.3V264.684V265.323V266.602V269.159C282.189 270.821 282.189 272.483 282.189 274.273C282.189 277.598 282.189 280.923 282.189 284.247C282.189 290.768 282.189 297.289 282.189 303.555C282.189 316.086 282.189 327.977 282.189 338.846L281.804 338.462C305.32 338.59 324.852 338.59 338.602 338.718C345.412 338.718 350.938 338.846 354.664 338.846C356.463 338.846 357.877 338.846 358.905 338.846C359.419 338.846 359.676 338.846 360.061 338.846C359.804 338.846 359.419 338.846 359.033 338.846C358.005 338.846 356.592 338.846 354.793 338.846C351.066 338.846 345.669 338.846 338.859 338.974C324.98 338.974 305.32 339.102 281.804 339.23H281.418V338.846C281.418 327.977 281.418 316.086 281.418 303.555C281.418 297.289 281.418 290.768 281.418 284.247C281.418 280.923 281.418 277.598 281.418 274.273C281.418 272.611 281.418 270.949 281.418 269.159V266.602V265.323V264.684V264.3V264.172V264.044C281.033 264.428 281.932 263.533 281.932 263.533C310.845 263.533 337.831 263.533 360.575 263.533H360.961V263.916C360.832 286.421 360.832 305.089 360.704 318.26C360.704 324.781 360.575 329.895 360.575 333.348C360.575 335.01 360.575 336.417 360.575 337.312C360.575 337.695 360.575 338.079 360.575 338.335C360.575 338.718 360.447 338.846 360.447 338.846Z" fill="#E0E0E0"/>
<path d="M380.236 290.768L384.734 299.975L395.014 301.509L387.689 308.67L389.36 318.899L380.236 314.04L370.984 318.899L372.783 308.67L365.33 301.509L375.61 299.975L380.236 290.768Z" fill="#79D0E7"/>
<path d="M412.618 258.418L417.116 267.752L427.396 269.287L420.072 276.447L421.742 286.677L412.618 281.818L403.366 286.677L405.165 276.447L397.712 269.287L407.992 267.752L412.618 258.418Z" fill="#79D0E7"/>
<path d="M455.795 245.887L460.421 255.094L470.701 256.628L463.248 263.789L465.047 274.018L455.795 269.159L446.671 274.018L448.47 263.789L441.017 256.628L451.297 255.094L455.795 245.887Z" fill="#79D0E7"/>
<path d="M500.642 258.802L505.268 268.008L515.548 269.543L508.095 276.703L509.894 286.932L500.642 282.073L491.39 286.932L493.189 276.703L485.736 269.543L496.016 268.008L500.642 258.802Z" fill="#79D0E7"/>
<path d="M531.482 289.49L536.108 298.824L546.389 300.23L538.935 307.519L540.735 317.62L531.482 312.889L522.359 317.62L524.029 307.519L516.576 300.23L526.985 298.824L531.482 289.49Z" fill="#79D0E7"/>
<path d="M542.662 334.115L547.288 343.321L557.568 344.856L550.115 352.016L551.914 362.246L542.662 357.387L533.538 362.246L535.337 352.016L527.884 344.856L538.164 343.321L542.662 334.115Z" fill="#79D0E7"/>
<path d="M531.868 378.357L536.365 387.563L546.646 389.098L539.321 396.258L540.992 406.487L531.868 401.756L522.616 406.487L524.415 396.258L516.962 389.098L527.242 387.563L531.868 378.357Z" fill="#79D0E7"/>
<path d="M498.972 409.045L503.598 418.379L513.878 419.786L506.425 427.074L508.224 437.175L498.972 432.444L489.848 437.175L491.647 427.074L484.194 419.786L494.474 418.379L498.972 409.045Z" fill="#79D0E7"/>
<path d="M455.024 421.703L459.522 431.038L469.802 432.444L462.477 439.733L464.148 449.834L455.024 445.103L445.772 449.834L447.571 439.733L440.118 432.444L450.398 431.038L455.024 421.703Z" fill="#79D0E7"/>
<path d="M412.875 409.045L417.502 418.379L427.782 419.786L420.329 427.074L422.128 437.303L412.875 432.444L403.752 437.303L405.422 427.074L398.098 419.786L408.378 418.379L412.875 409.045Z" fill="#79D0E7"/>
<path d="M379.594 377.59L384.22 386.796L394.5 388.33L387.047 395.491L388.846 405.72L379.594 400.861L370.47 405.72L372.14 395.491L364.687 388.33L374.968 386.796L379.594 377.59Z" fill="#79D0E7"/>
<path d="M368.414 334.115L373.04 343.449L383.32 344.856L375.867 352.144L377.666 362.246L368.414 357.515L359.162 362.246L360.961 352.144L353.508 344.856L363.788 343.449L368.414 334.115Z" fill="#79D0E7"/>
<path d="M487.535 365.954H478.54V317.237C478.54 305.729 469.159 296.394 457.594 296.394C446.029 296.394 436.648 305.729 436.648 317.237V365.954H427.653V317.237C427.653 300.87 441.017 287.444 457.594 287.444C474.042 287.444 487.535 300.742 487.535 317.237V365.954Z" fill="#263238"/>
<path d="M490.49 395.747H424.826C420.714 395.747 417.373 392.422 417.373 388.33V351.633C417.373 347.541 420.714 344.216 424.826 344.216H490.49C494.602 344.216 497.944 347.541 497.944 351.633V388.202C497.944 392.422 494.602 395.747 490.49 395.747Z" fill="#63909B"/>
<path d="M464.405 363.269C464.405 366.977 461.449 369.918 457.723 369.918C453.996 369.918 451.04 366.977 451.04 363.269C451.04 359.56 453.996 356.619 457.723 356.619C461.449 356.619 464.405 359.56 464.405 363.269Z" fill="#263238"/>
<path d="M459.522 365.954H455.795V379.763H459.522V365.954Z" fill="#263238"/>
<path d="M421.742 390.76C421.614 390.76 421.357 382.193 421.357 371.58C421.357 360.967 421.485 352.4 421.742 352.4C421.871 352.4 422.128 360.967 422.128 371.58C421.999 382.193 421.871 390.76 421.742 390.76Z" fill="#FAFAFA"/>
<path d="M452.454 371.836C452.454 371.836 452.197 371.708 451.683 371.452C451.169 371.068 450.526 370.557 449.884 369.662C448.599 368 447.442 365.059 448.213 361.862C448.984 358.665 451.426 356.492 453.225 355.597C454.124 355.085 455.024 354.829 455.538 354.829C456.052 354.701 456.437 354.701 456.437 354.829C456.437 354.957 455.152 355.085 453.353 356.108C451.683 357.131 449.498 359.177 448.727 362.118C448.085 365.059 448.984 367.872 450.141 369.534C451.426 371.068 452.454 371.708 452.454 371.836Z" fill="#FAFAFA"/>
</svg>
