<svg width="346" height="192" viewBox="0 0 865 462" fill="none" xmlns="http://www.w3.org/2000/svg">
<path d="M562.826 107.791C579.869 86.4721 602.851 70.6856 628.866 62.428C654.881 54.1704 682.76 53.8125 708.978 61.3996C735.196 68.9867 758.576 84.1781 776.16 105.053C793.745 125.927 804.744 151.547 807.768 178.673C810.792 205.799 805.704 233.213 793.148 257.447C780.591 281.681 761.131 301.648 737.227 314.822C713.323 327.996 686.049 333.786 658.854 331.46C631.66 329.133 605.766 318.795 584.447 301.752L670.617 193.961L562.826 107.791Z" fill="url(#paint0_linear_3285_3867)"/>
<path opacity="0.17" d="M205.416 454.981L9.22451 330.98C-4.63491 322.187 -2.475 301.55 13.0044 295.807L550.102 94.6421C555.862 92.4886 562.342 93.2064 567.561 96.4366L774.733 227.257C788.592 236.05 786.432 256.687 770.953 262.429L245.915 459.108C232.415 464.133 217.476 462.518 205.416 454.981Z" fill="black"/>
<path d="M270.934 414.922L74.7418 290.921C60.8823 282.128 63.0423 261.491 78.5216 255.749L550.282 80.7834C556.042 78.63 562.522 79.3478 567.741 82.5779L774.913 213.398C788.772 222.191 786.612 242.828 771.133 248.571L311.432 419.05C297.933 424.074 282.993 422.459 270.934 414.922Z" fill="#576B81"/>
<path d="M783.912 198.145L783.732 232.779L748.814 231.343L783.912 198.145Z" fill="#576B81"/>
<path d="M122.98 279.257L65.7422 275.13L65.2022 243.008L122.98 246.597V279.257Z" fill="#576B81"/>
<path d="M771.493 196.888H713.715V229.549H771.493V196.888Z" fill="#576B81"/>
<path d="M271.114 382.8L74.2017 258.261C60.5223 249.647 62.6822 229.19 77.8016 223.627L550.282 48.4821C556.042 46.3287 562.341 47.0465 567.561 50.2767L775.273 181.635C788.952 190.249 786.792 210.706 771.673 216.269L311.252 386.928C297.932 391.773 282.993 390.337 271.114 382.8Z" fill="#79D0E7"/>
<path d="M351.03 371.495L101.921 214.116L484.225 73.426L733.154 230.805L351.03 371.495Z" fill="#46929E"/>
<path d="M651.438 145.386L601.22 113.623C600.32 113.084 600.5 111.828 601.4 111.469L607.88 109.137C609.32 108.598 610.76 108.778 612.019 109.495L661.697 140.899C662.597 141.438 662.597 143.053 661.517 143.412L654.858 145.924C653.598 146.104 652.518 145.924 651.438 145.386Z" fill="#49447A"/>
<path d="M210.996 296.305C210.996 301.868 201.276 306.354 189.217 306.354C177.157 306.354 167.438 301.868 167.438 296.305C167.438 290.742 177.157 286.255 189.217 286.255C201.096 286.255 210.996 290.742 210.996 296.305Z" fill="white"/>
<path d="M313.052 255.21C347.049 255.21 374.609 242.034 374.609 225.78C374.609 209.526 347.049 196.35 313.052 196.35C279.055 196.35 251.494 209.526 251.494 225.78C251.494 242.034 279.055 255.21 313.052 255.21Z" fill="#387B82"/>
<path d="M326.551 246.955C360.549 246.955 388.109 233.779 388.109 217.525C388.109 201.272 360.549 188.095 326.551 188.095C292.554 188.095 264.994 201.272 264.994 217.525C264.994 233.779 292.554 246.955 326.551 246.955Z" fill="#FFA340"/>
<path d="M388.109 205.681H264.994V220.038H388.109V205.681Z" fill="#FFA340"/>
<path d="M326.551 236.188C360.549 236.188 388.109 223.012 388.109 206.758C388.109 190.504 360.549 177.328 326.551 177.328C292.554 177.328 264.994 190.504 264.994 206.758C264.994 223.012 292.554 236.188 326.551 236.188Z" fill="#FFD840"/>
<path d="M326.551 229.369C353.59 229.369 375.509 219.246 375.509 206.758C375.509 194.271 353.59 184.147 326.551 184.147C299.513 184.147 277.593 194.271 277.593 206.758C277.593 219.246 299.513 229.369 326.551 229.369Z" fill="#FFE066"/>
<path d="M457.766 210.168C491.763 210.168 519.323 196.992 519.323 180.738C519.323 164.484 491.763 151.308 457.766 151.308C423.769 151.308 396.208 164.484 396.208 180.738C396.208 196.992 423.769 210.168 457.766 210.168Z" fill="#387B82"/>
<path d="M465.506 202.092C499.503 202.092 527.063 188.916 527.063 172.662C527.063 156.408 499.503 143.232 465.506 143.232C431.508 143.232 403.948 156.408 403.948 172.662C403.948 188.916 431.508 202.092 465.506 202.092Z" fill="#FFA340"/>
<path d="M527.063 160.639H403.948V174.995H527.063V160.639Z" fill="#FFA340"/>
<path d="M465.506 191.146C499.503 191.146 527.063 177.969 527.063 161.716C527.063 145.462 499.503 132.286 465.506 132.286C431.508 132.286 403.948 145.462 403.948 161.716C403.948 177.969 431.508 191.146 465.506 191.146Z" fill="#FFD840"/>
<path d="M465.506 184.327C492.544 184.327 514.464 174.204 514.464 161.716C514.464 149.228 492.544 139.105 465.506 139.105C438.467 139.105 416.548 149.228 416.548 161.716C416.548 174.204 438.467 184.327 465.506 184.327Z" fill="#FFE066"/>
<path d="M451.466 163.869L443.726 159.741L449.666 156.691L457.406 160.818C461.006 162.792 466.946 162.792 470.725 160.818C474.505 158.844 474.505 155.794 470.905 153.82L462.806 149.513L468.745 146.462L476.845 150.769C483.685 154.358 483.505 160.28 476.485 163.869C469.645 167.458 458.306 167.458 451.466 163.869Z" fill="#FFA340"/>
<path d="M480.445 168.893L453.086 154.537L459.206 151.486L486.385 165.843L480.445 168.893Z" fill="#FFA340"/>
<path d="M490.165 163.869L462.806 149.513L468.745 146.462L496.104 160.818L490.165 163.869Z" fill="#FFA340"/>
<path d="M449.486 177.148L452.186 160.1L443.906 159.741L441.747 173.021L449.486 177.148Z" fill="#FFA340"/>
<path d="M465.506 181.276C499.503 181.276 527.063 168.1 527.063 151.846C527.063 135.592 499.503 122.416 465.506 122.416C431.508 122.416 403.948 135.592 403.948 151.846C403.948 168.1 431.508 181.276 465.506 181.276Z" fill="#FFA340"/>
<path d="M527.063 139.823H403.948V154.179H527.063V139.823Z" fill="#FFA340"/>
<path d="M465.506 170.33C499.503 170.33 527.063 157.154 527.063 140.9C527.063 124.646 499.503 111.47 465.506 111.47C431.508 111.47 403.948 124.646 403.948 140.9C403.948 157.154 431.508 170.33 465.506 170.33Z" fill="#FFD840"/>
<path d="M465.506 163.511C492.544 163.511 514.464 153.388 514.464 140.9C514.464 128.412 492.544 118.289 465.506 118.289C438.467 118.289 416.548 128.412 416.548 140.9C416.548 153.388 438.467 163.511 465.506 163.511Z" fill="#FFE066"/>
<path d="M451.466 143.053L443.726 138.926L449.666 135.875L457.406 140.002C461.006 141.976 466.946 141.976 470.725 140.002C474.505 138.028 474.505 134.978 470.905 133.004L462.806 128.697L468.745 125.646L476.845 129.953C483.685 133.542 483.505 139.464 476.485 143.053C469.645 146.642 458.306 146.642 451.466 143.053Z" fill="#FFA340"/>
<path d="M480.445 148.257L453.086 133.722L459.206 130.671L486.385 145.027L480.445 148.257Z" fill="#FFA340"/>
<path d="M490.165 143.232L462.806 128.697L468.745 125.646L496.104 140.002L490.165 143.232Z" fill="#FFA340"/>
<path d="M449.486 156.332L452.186 139.284L443.906 138.925L441.747 152.205L449.486 156.332Z" fill="#FFA340"/>
<path d="M465.506 160.46C499.503 160.46 527.063 147.283 527.063 131.03C527.063 114.776 499.503 101.6 465.506 101.6C431.508 101.6 403.948 114.776 403.948 131.03C403.948 147.283 431.508 160.46 465.506 160.46Z" fill="#FFA340"/>
<path d="M527.063 119.006H403.948V133.363H527.063V119.006Z" fill="#FFA340"/>
<path d="M465.506 149.513C499.503 149.513 527.063 136.337 527.063 120.083C527.063 103.829 499.503 90.6531 465.506 90.6531C431.508 90.6531 403.948 103.829 403.948 120.083C403.948 136.337 431.508 149.513 465.506 149.513Z" fill="#FFD840"/>
<path d="M465.506 142.694C492.544 142.694 514.464 132.571 514.464 120.083C514.464 107.596 492.544 97.4724 465.506 97.4724C438.467 97.4724 416.548 107.596 416.548 120.083C416.548 132.571 438.467 142.694 465.506 142.694Z" fill="#FFE066"/>
<path d="M451.466 122.236L443.726 118.109L449.666 115.058L457.406 119.185C461.006 121.159 466.946 121.159 470.725 119.185C474.505 117.212 474.505 114.161 470.905 112.187L462.806 107.88L468.745 104.829L476.845 109.136C483.685 112.725 483.505 118.647 476.485 122.236C469.645 125.825 458.306 125.825 451.466 122.236Z" fill="#FFA340"/>
<path d="M480.445 127.44L453.086 112.904L459.206 109.854L486.385 124.21L480.445 127.44Z" fill="#FFA340"/>
<path d="M490.165 122.416L462.806 107.88L468.745 104.829L496.104 119.185L490.165 122.416Z" fill="#FFA340"/>
<path d="M449.486 135.515L452.186 118.468L443.906 118.109L441.747 131.388L449.486 135.515Z" fill="#FFA340"/>
<path d="M465.506 139.643C499.503 139.643 527.063 126.467 527.063 110.213C527.063 93.9592 499.503 80.783 465.506 80.783C431.508 80.783 403.948 93.9592 403.948 110.213C403.948 126.467 431.508 139.643 465.506 139.643Z" fill="#FFA340"/>
<path d="M527.063 98.3691H403.948V112.725H527.063V98.3691Z" fill="#FFA340"/>
<path d="M465.506 128.697C499.503 128.697 527.063 115.52 527.063 99.2665C527.063 83.0127 499.503 69.8364 465.506 69.8364C431.508 69.8364 403.948 83.0127 403.948 99.2665C403.948 115.52 431.508 128.697 465.506 128.697Z" fill="#FFD840"/>
<path d="M465.506 121.878C492.544 121.878 514.464 111.754 514.464 99.2667C514.464 86.779 492.544 76.6558 465.506 76.6558C438.467 76.6558 416.548 86.779 416.548 99.2667C416.548 111.754 438.467 121.878 465.506 121.878Z" fill="#FFE066"/>
<path d="M451.466 101.42L443.726 97.2924L449.666 94.2417L457.406 98.3691C461.006 100.343 466.946 100.343 470.725 98.3691C474.505 96.3951 474.505 93.3444 470.905 91.3705L462.806 87.0636L468.745 84.0129L476.845 88.3198C483.685 91.9088 483.505 97.8307 476.485 101.42C469.645 105.009 458.306 105.009 451.466 101.42Z" fill="#FFA340"/>
<path d="M480.445 106.623L453.086 92.0878L459.206 89.0371L486.385 103.393L480.445 106.623Z" fill="#FFA340"/>
<path d="M490.165 101.599L462.806 87.0636L468.745 84.0129L496.104 98.3691L490.165 101.599Z" fill="#FFA340"/>
<path d="M449.486 114.699L452.186 97.6509L443.906 97.292L441.747 110.571L449.486 114.699Z" fill="#FFA340"/>
<path d="M465.506 118.827C499.503 118.827 527.063 105.651 527.063 89.3971C527.063 73.1433 499.503 59.967 465.506 59.967C431.508 59.967 403.948 73.1433 403.948 89.3971C403.948 105.651 431.508 118.827 465.506 118.827Z" fill="#FFA340"/>
<path d="M527.063 77.553H403.948V91.9091H527.063V77.553Z" fill="#FFA340"/>
<path d="M465.506 108.06C499.503 108.06 527.063 94.8835 527.063 78.6298C527.063 62.376 499.503 49.1997 465.506 49.1997C431.508 49.1997 403.948 62.376 403.948 78.6298C403.948 94.8835 431.508 108.06 465.506 108.06Z" fill="#FFD840"/>
<path d="M465.506 101.241C492.544 101.241 514.464 91.1176 514.464 78.6299C514.464 66.1423 492.544 56.019 465.506 56.019C438.467 56.019 416.548 66.1423 416.548 78.6299C416.548 91.1176 438.467 101.241 465.506 101.241Z" fill="#FFE066"/>
<path d="M451.466 80.6036L443.726 76.4762L449.666 73.4255L457.406 77.5529C461.006 79.5269 466.946 79.5269 470.725 77.5529C474.505 75.5789 474.505 72.5283 470.905 70.5543L462.806 66.2475L468.745 63.1968L476.845 67.5036C483.685 71.0926 483.505 77.0145 476.485 80.6036C469.645 84.1926 458.306 84.1926 451.466 80.6036Z" fill="#FFA340"/>
<path d="M480.445 85.8079L453.086 71.2724L459.206 68.2217L486.385 82.5778L480.445 85.8079Z" fill="#FFA340"/>
<path d="M490.165 80.783L462.806 66.2475L468.745 63.1968L496.104 77.5529L490.165 80.783Z" fill="#FFA340"/>
<path d="M449.486 93.8829L452.186 76.835L443.906 76.4761L441.747 89.7555L449.486 93.8829Z" fill="#FFA340"/>
<path d="M465.506 98.011C499.503 98.011 527.063 84.8347 527.063 68.5809C527.063 52.3272 499.503 39.1509 465.506 39.1509C431.508 39.1509 403.948 52.3272 403.948 68.5809C403.948 84.8347 431.508 98.011 465.506 98.011Z" fill="#FFA340"/>
<path d="M527.063 56.7371H403.948V71.0932H527.063V56.7371Z" fill="#FFA340"/>
<path d="M465.506 87.2437C499.503 87.2437 527.063 74.0674 527.063 57.8136C527.063 41.5598 499.503 28.3835 465.506 28.3835C431.508 28.3835 403.948 41.5598 403.948 57.8136C403.948 74.0674 431.508 87.2437 465.506 87.2437Z" fill="#FFD840"/>
<path d="M465.506 80.4249C492.544 80.4249 514.464 70.3017 514.464 57.814C514.464 45.3264 492.544 35.2031 465.506 35.2031C438.467 35.2031 416.548 45.3264 416.548 57.814C416.548 70.3017 438.467 80.4249 465.506 80.4249Z" fill="#FFE066"/>
<path d="M451.466 59.7877L443.726 55.6603L449.666 52.6096L457.406 56.737C461.006 58.7109 466.946 58.7109 470.725 56.737C474.505 54.763 474.505 51.7123 470.905 49.7384L462.806 45.4315L468.745 42.3809L476.845 46.6877C483.685 50.2767 483.505 56.1986 476.485 59.7877C469.645 63.3767 458.306 63.3767 451.466 59.7877Z" fill="#FFA340"/>
<path d="M480.445 64.9915L453.086 50.4559L459.206 47.4053L486.385 61.7614L480.445 64.9915Z" fill="#FFA340"/>
<path d="M490.165 59.9671L462.806 45.4315L468.745 42.3809L496.104 56.9164L490.165 59.9671Z" fill="#FFA340"/>
<path d="M449.486 73.0672L452.186 56.0193L443.906 55.8398L441.747 68.9398L449.486 73.0672Z" fill="#FFA340"/>
<path d="M465.506 77.3735C499.503 77.3735 527.063 64.1972 527.063 47.9435C527.063 31.6897 499.503 18.5134 465.506 18.5134C431.508 18.5134 403.948 31.6897 403.948 47.9435C403.948 64.1972 431.508 77.3735 465.506 77.3735Z" fill="#FFA340"/>
<path d="M527.063 35.9204H403.948V50.2765H527.063V35.9204Z" fill="#FFA340"/>
<path d="M465.506 66.427C499.503 66.427 527.063 53.2507 527.063 36.9969C527.063 20.7432 499.503 7.56689 465.506 7.56689C431.508 7.56689 403.948 20.7432 403.948 36.9969C403.948 53.2507 431.508 66.427 465.506 66.427Z" fill="#FFD840"/>
<path d="M465.506 59.6083C492.544 59.6083 514.464 49.485 514.464 36.9974C514.464 24.5097 492.544 14.3865 465.506 14.3865C438.467 14.3865 416.548 24.5097 416.548 36.9974C416.548 49.485 438.467 59.6083 465.506 59.6083Z" fill="#FFE066"/>
<path d="M446.246 307.969C480.244 307.969 507.804 294.792 507.804 278.539C507.804 262.285 480.244 249.109 446.246 249.109C412.249 249.109 384.689 262.285 384.689 278.539C384.689 294.792 412.249 307.969 446.246 307.969Z" fill="#387B82"/>
<path d="M453.986 299.894C487.983 299.894 515.544 286.717 515.544 270.463C515.544 254.21 487.983 241.033 453.986 241.033C419.989 241.033 392.429 254.21 392.429 270.463C392.429 286.717 419.989 299.894 453.986 299.894Z" fill="#FFA340"/>
<path d="M515.544 258.44H392.429V272.797H515.544V258.44Z" fill="#FFA340"/>
<path d="M453.986 288.947C487.983 288.947 515.544 275.771 515.544 259.517C515.544 243.263 487.983 230.087 453.986 230.087C419.989 230.087 392.429 243.263 392.429 259.517C392.429 275.771 419.989 288.947 453.986 288.947Z" fill="#FFD840"/>
<path d="M453.986 282.128C481.025 282.128 502.944 272.005 502.944 259.517C502.944 247.03 481.025 236.906 453.986 236.906C426.947 236.906 405.028 247.03 405.028 259.517C405.028 272.005 426.947 282.128 453.986 282.128Z" fill="#FFE066"/>
<path d="M439.947 261.491L432.207 257.364L438.147 254.313L445.886 258.44C449.486 260.414 455.426 260.414 459.206 258.44C462.986 256.466 462.986 253.416 459.386 251.442L451.286 247.135L457.226 244.084L465.326 248.391C472.165 251.98 471.985 257.902 464.966 261.491C457.946 265.08 446.786 265.08 439.947 261.491Z" fill="#FFA340"/>
<path d="M468.926 266.695L441.567 252.339L447.506 249.109L474.865 263.644L468.926 266.695Z" fill="#FFA340"/>
<path d="M478.645 261.67L451.286 247.314L457.226 244.084L484.585 258.62L478.645 261.67Z" fill="#FFA340"/>
<path d="M437.967 274.771L440.667 257.723L432.207 257.543L430.227 270.643L437.967 274.771Z" fill="#FFA340"/>
<path d="M453.986 275.847C487.983 275.847 515.544 262.671 515.544 246.417C515.544 230.163 487.983 216.987 453.986 216.987C419.989 216.987 392.429 230.163 392.429 246.417C392.429 262.671 419.989 275.847 453.986 275.847Z" fill="#FFA340"/>
<path d="M515.544 234.573H392.429V248.929H515.544V234.573Z" fill="#FFA340"/>
<path d="M453.986 264.9C487.983 264.9 515.544 251.724 515.544 235.47C515.544 219.217 487.983 206.04 453.986 206.04C419.989 206.04 392.429 219.217 392.429 235.47C392.429 251.724 419.989 264.9 453.986 264.9Z" fill="#FFD840"/>
<path d="M453.986 258.082C481.025 258.082 502.944 247.958 502.944 235.471C502.944 222.983 481.025 212.86 453.986 212.86C426.947 212.86 405.028 222.983 405.028 235.471C405.028 247.958 426.947 258.082 453.986 258.082Z" fill="#FFE066"/>
<path d="M439.947 237.624L432.207 233.496L438.147 230.446L445.886 234.573C449.486 236.547 455.426 236.547 459.206 234.573C462.986 232.599 462.986 229.548 459.386 227.574L451.286 223.268L457.226 220.217L465.326 224.524C472.165 228.113 471.985 234.035 464.966 237.624C457.946 241.213 446.786 241.213 439.947 237.624Z" fill="#FFA340"/>
<path d="M468.926 242.827L441.567 228.292L447.506 225.241L474.865 239.597L468.926 242.827Z" fill="#FFA340"/>
<path d="M478.645 237.803L451.286 223.268L457.226 220.217L484.585 234.573L478.645 237.803Z" fill="#FFA340"/>
<path d="M437.967 250.903L440.667 233.855L432.207 233.496L430.227 246.776L437.967 250.903Z" fill="#FFA340"/>
<path d="M453.986 251.98C487.983 251.98 515.544 238.803 515.544 222.55C515.544 206.296 487.983 193.12 453.986 193.12C419.989 193.12 392.429 206.296 392.429 222.55C392.429 238.803 419.989 251.98 453.986 251.98Z" fill="#FFA340"/>
<path d="M515.544 210.527H392.429V224.883H515.544V210.527Z" fill="#FFA340"/>
<path d="M453.986 241.033C487.983 241.033 515.544 227.857 515.544 211.603C515.544 195.349 487.983 182.173 453.986 182.173C419.989 182.173 392.429 195.349 392.429 211.603C392.429 227.857 419.989 241.033 453.986 241.033Z" fill="#FFD840"/>
<path d="M453.986 234.214C481.025 234.214 502.944 224.091 502.944 211.603C502.944 199.116 481.025 188.993 453.986 188.993C426.947 188.993 405.028 199.116 405.028 211.603C405.028 224.091 426.947 234.214 453.986 234.214Z" fill="#FFE066"/>
<defs>
<linearGradient id="paint0_linear_3285_3867" x1="584.447" y1="301.752" x2="756.787" y2="86.1704" gradientUnits="userSpaceOnUse">
<stop stop-color="#46929E" stop-opacity="0"/>
<stop offset="1" stop-color="#79D0E7" stop-opacity="0.31"/>
</linearGradient>
</defs>
</svg>
