<svg width="29" height="29" viewBox="0 0 29 29" fill="none" xmlns="http://www.w3.org/2000/svg">
<g id="policy_FILL1_wght400_GRAD200_opsz48 1">
<path id="Vector" d="M14.6189 17.1529C15.336 17.1529 15.9521 16.8989 16.4674 16.3909C16.9827 15.883 17.2403 15.2705 17.2403 14.5534C17.2403 13.817 16.9815 13.1911 16.4638 12.6758C15.9461 12.1605 15.3287 11.9029 14.6117 11.9029C13.8947 11.9029 13.2785 12.1617 12.7632 12.6794C12.248 13.1971 11.9903 13.8242 11.9903 14.5607C11.9903 15.2777 12.2492 15.889 12.7668 16.3945C13.2845 16.9001 13.9019 17.1529 14.6189 17.1529ZM14.6068 26.7779C11.7736 26.0973 9.43823 24.4634 7.60073 21.8762C5.76323 19.289 4.84448 16.4611 4.84448 13.3924V6.1401L14.6153 2.45288L24.3861 6.13943V13.3904C24.3861 14.7126 24.216 15.9814 23.8757 17.1966C23.5355 18.4119 23.0348 19.5737 22.3736 20.682L18.6111 17.0362C18.8639 16.6862 19.0535 16.2905 19.1799 15.8492C19.3063 15.4078 19.3695 14.9771 19.3695 14.557C19.3695 13.2198 18.907 12.0882 17.9821 11.1624C17.0573 10.2366 15.9365 9.77371 14.62 9.77371C13.3034 9.77371 12.1811 10.2362 11.2531 11.1611C10.3251 12.0859 9.86115 13.2164 9.86115 14.5524C9.86115 15.869 10.324 16.9864 11.2498 17.9047C12.1756 18.8229 13.2975 19.282 14.6153 19.282C15.0635 19.282 15.5017 19.214 15.93 19.0779C16.3583 18.9418 16.7659 18.7668 17.1528 18.5529L21.1486 22.432C20.3709 23.4626 19.4244 24.3619 18.3092 25.13C17.1941 25.898 15.9599 26.4473 14.6068 26.7779Z" fill="#000000"/>
</g>
</svg>
