<svg width="16" height="16" viewBox="0 0 16 16" fill="none" xmlns="http://www.w3.org/2000/svg">
<path d="M9.05004 10.3335C9.23443 10.3335 9.39442 10.2657 9.53001 10.1301C9.66558 9.99454 9.73337 9.83455 9.73337 9.65016C9.73337 9.46577 9.66558 9.30578 9.53001 9.1702C9.39442 9.03462 9.23443 8.96683 9.05004 8.96683C8.86565 8.96683 8.70566 9.03462 8.57007 9.1702C8.4345 9.30578 8.36671 9.46577 8.36671 9.65016C8.36671 9.83455 8.4345 9.99454 8.57007 10.1301C8.70566 10.2657 8.86565 10.3335 9.05004 10.3335ZM8.63337 8.2335H9.41671C9.43893 7.91127 9.48615 7.67238 9.55837 7.51683C9.6306 7.36127 9.81115 7.14461 10.1 6.86683C10.4 6.57794 10.6084 6.32575 10.725 6.11025C10.8417 5.89475 10.9 5.64138 10.9 5.35016C10.9 4.84036 10.725 4.42402 10.375 4.10115C10.025 3.77827 9.56671 3.61683 9.00004 3.61683C8.57782 3.61683 8.20004 3.73072 7.86671 3.9585C7.53337 4.18627 7.28893 4.50572 7.13337 4.91683L7.88337 5.2335C8.0056 4.95572 8.15837 4.74461 8.34171 4.60016C8.52504 4.45572 8.74448 4.3835 9.00004 4.3835C9.33091 4.3835 9.59973 4.47794 9.80652 4.66683C10.0133 4.85572 10.1167 5.09461 10.1167 5.3835C10.1167 5.60572 10.0667 5.80016 9.96671 5.96683C9.86671 6.1335 9.68893 6.31127 9.43337 6.50016C9.07782 6.82238 8.8556 7.08072 8.76671 7.27516C8.67782 7.46961 8.63337 7.78905 8.63337 8.2335ZM4.33337 12.6668C4.06671 12.6668 3.83337 12.5668 3.63337 12.3668C3.43337 12.1668 3.33337 11.9335 3.33337 11.6668V2.3335C3.33337 2.06683 3.43337 1.8335 3.63337 1.6335C3.83337 1.4335 4.06671 1.3335 4.33337 1.3335H13.6667C13.9334 1.3335 14.1667 1.4335 14.3667 1.6335C14.5667 1.8335 14.6667 2.06683 14.6667 2.3335V11.6668C14.6667 11.9335 14.5667 12.1668 14.3667 12.3668C14.1667 12.5668 13.9334 12.6668 13.6667 12.6668H4.33337ZM4.33337 11.6668H13.6667V2.3335H4.33337V11.6668ZM2.33337 14.6668C2.06671 14.6668 1.83337 14.5668 1.63337 14.3668C1.43337 14.1668 1.33337 13.9335 1.33337 13.6668V3.3335H2.33337V13.6668H12.6667V14.6668H2.33337Z" fill="#000000"/>
</svg>
