<svg width="390" height="234" viewBox="0 0 390 234" fill="none" xmlns="http://www.w3.org/2000/svg">
<g clip-path="url(#clip0_428_36288)">
<path d="M210.128 126.315C193.854 155.523 185.153 179.948 185.153 179.948C166.334 146.471 133.529 133.858 133.529 133.858C161.049 132.863 180.996 147.402 180.996 147.402C199.622 113.348 229.398 79.4865 250.795 67.8677C250.795 67.8677 225.692 98.3592 210.128 126.315Z" fill="url(#paint0_linear_428_36288)"/>
<path d="M268.744 111.39C266.811 103.559 263.621 96.0161 259.399 89.1154L255.017 91.8436C259.077 98.2307 262.138 105.26 264.039 112.61C265.941 119.928 266.714 127.567 266.295 135.141C265.49 150.259 259.882 165.376 250.344 177.188C247.959 180.173 245.381 182.997 242.546 185.597C239.71 188.165 236.713 190.572 233.555 192.722L231.138 194.295C212.158 206.588 188.472 207.936 167.269 201.452C166.334 201.164 165.464 200.81 164.562 200.457C158.246 198.018 152.284 194.744 146.838 190.732C143.744 188.421 140.812 185.886 138.073 183.125C129.823 174.877 123.83 164.67 120.027 153.693C118.867 150.002 117.9 146.247 117.288 142.427C116.676 138.608 116.353 134.724 116.289 130.841C116.225 123.073 117.352 115.306 119.64 107.86C121.928 100.413 125.409 93.3521 129.888 86.9649C134.367 80.5457 139.813 74.8325 146.032 70.0823C148.417 68.2528 150.898 66.5838 153.476 65.0432C163.917 59.2016 172.94 56.7944 175.679 57.0191C175.679 57.0191 160.92 61.32 151.768 70.2107C151.768 70.2107 156.377 77.3039 165.496 75.6028C176.259 73.5808 177.419 62.5076 191.824 56.4093C191.824 56.4093 181.415 46.1384 167.655 48.3531C159.502 49.6369 150.093 56.987 149.738 65.8135C149.706 66.2628 149.738 66.7122 149.771 67.1294C148.417 67.996 147.128 68.9268 145.839 69.8897C139.523 74.5758 133.948 80.2568 129.372 86.644C124.764 93.0311 121.155 100.124 118.738 107.635C116.289 115.081 115.032 122.945 115 130.841C115 134.788 115.29 138.736 115.838 142.652C116.418 146.568 117.352 150.419 118.512 154.207C121.928 165.28 128.373 176.193 136.591 184.602C139.362 187.426 142.294 190.09 145.452 192.498C151.704 197.28 158.89 201.452 166.463 203.892C189.729 211.37 214.832 208.738 235.553 195.675C238.904 193.46 242.094 191.021 245.091 188.325C248.088 185.629 250.827 182.708 253.405 179.595C255.983 176.514 258.239 173.176 260.269 169.709C261.333 168.008 262.203 166.179 263.137 164.413C267.616 155.715 270.001 145.284 270.839 135.43C271.354 127.374 270.646 119.254 268.744 111.39Z" fill="url(#paint1_linear_428_36288)"/>
</g>
<g clip-path="url(#clip1_428_36288)">
<path d="M310.052 110.506C303.506 108.245 299.039 104.32 294 98.549L296.13 94C301.428 101.018 303.143 104.814 309.766 104.268L310.052 110.506Z" fill="#FFB900"/>
<path d="M87.0515 143.506C80.5063 141.245 76.0388 137.32 71 131.549L73.1298 127C78.4284 134.018 80.1426 137.814 86.7658 137.268L87.0515 143.506Z" fill="#FFB900"/>
<path d="M101.152 84.1174C97.9051 88.7444 94.2429 91.2398 89.3079 93.6313L87.2041 90.5899C92.9442 88.3285 95.7234 88.0425 97.3077 82.5317L101.152 84.1174Z" fill="#FF5C33"/>
<path d="M133.073 4.73106C126.372 8.68219 120.216 9.46201 112.424 9.30605L111.152 3.79527C119.957 4.73106 123.827 6.23873 128.762 -0.0258789L133.073 4.73106Z" fill="#30B7DB"/>
<path d="M228.162 18.3521C222.577 15.5967 218.941 11.5936 214.993 5.92688L217.279 2.15771C221.357 8.9682 222.551 12.5294 228.447 12.8153L228.162 18.3521Z" fill="#14CCA1"/>
<path d="M315.198 40.1873C321.328 36.5741 324.705 31.8691 328.107 25.3186L324.367 21.5234C321.12 29.3217 320.575 33.2728 313.432 34.2606L315.198 40.1873Z" fill="#FF5C33"/>
<path d="M317.795 178.658C315.328 186.301 311.562 191.369 306.107 197.01L302.211 194.151C308.783 188.302 312.263 186.509 312.237 178.58L317.795 178.658Z" fill="#FF5C33"/>
<path d="M64.4516 54.588C65.8861 54.588 67.0489 53.4242 67.0489 51.9886C67.0489 50.553 65.8861 49.3892 64.4516 49.3892C63.0171 49.3892 61.8542 50.553 61.8542 51.9886C61.8542 53.4242 63.0171 54.588 64.4516 54.588Z" fill="#FF5C33"/>
<path d="M270.862 54.588C272.296 54.588 273.459 53.4242 273.459 51.9886C273.459 50.553 272.296 49.3892 270.862 49.3892C269.428 49.3892 268.265 50.553 268.265 51.9886C268.265 53.4242 269.428 54.588 270.862 54.588Z" fill="#FFB900"/>
</g>
<defs>
<linearGradient id="paint0_linear_428_36288" x1="133.542" y1="123.923" x2="250.807" y2="123.923" gradientUnits="userSpaceOnUse">
<stop stop-color="#79D0E7"/>
<stop offset="1" stop-color="#50BEDB"/>
</linearGradient>
<linearGradient id="paint1_linear_428_36288" x1="115.607" y1="121.381" x2="270.636" y2="137.291" gradientUnits="userSpaceOnUse">
<stop stop-color="#6CA3C2"/>
<stop offset="1" stop-color="#4D7084"/>
</linearGradient>
<clipPath id="clip0_428_36288">
<rect width="156" height="160" fill="white" transform="translate(115 48)"/>
</clipPath>
<clipPath id="clip1_428_36288">
<rect width="499" height="234" fill="white" transform="translate(-55)"/>
</clipPath>
</defs>
</svg>
